<svg width="32" height="32" viewBox="0 0 32 32" fill="none" xmlns="http://www.w3.org/2000/svg">
<g clip-path="url(#clip0_264_1192)">
<path fill-rule="evenodd" clip-rule="evenodd" d="M17.9575 19.0184L25.9712 27.0303C26.2637 27.3231 26.7363 27.3231 27.0288 27.0303C27.3213 26.7378 27.3213 26.2622 27.0288 25.9697L19.0188 17.9575C20.1775 16.5614 20.875 14.7677 20.875 12.8125C20.875 8.36275 17.2638 4.75 12.8125 4.75C8.36125 4.75 4.75 8.36275 4.75 12.8125C4.75 17.2622 8.36125 20.875 12.8125 20.875C14.7663 20.875 16.5625 20.1775 17.9575 19.0184ZM12.8125 6.25C16.435 6.25 19.375 9.19037 19.375 12.8125C19.375 16.4346 16.435 19.375 12.8125 19.375C9.19 19.375 6.25 16.4346 6.25 12.8125C6.25 9.19037 9.19 6.25 12.8125 6.25Z" fill="#494949"/>
<path fill-rule="evenodd" clip-rule="evenodd" d="M13 8.125C13.4142 8.125 13.75 8.46079 13.75 8.875V12.0625H17.5C17.9142 12.0625 18.25 12.3983 18.25 12.8125C18.25 13.2267 17.9142 13.5625 17.5 13.5625H13.75V17.3125C13.75 17.7267 13.4142 18.0625 13 18.0625C12.5858 18.0625 12.25 17.7267 12.25 17.3125V13.5625H8.5C8.08579 13.5625 7.75 13.2267 7.75 12.8125C7.75 12.3983 8.08579 12.0625 8.5 12.0625H12.25V8.875C12.25 8.46079 12.5858 8.125 13 8.125Z" fill="#494949"/>
</g>
<defs>
<clipPath id="clip0_264_1192">
<rect width="24" height="24" fill="white" transform="translate(4 4)"/>
</clipPath>
</defs>
</svg>
