<svg width="65" height="65" viewBox="0 0 65 65" fill="none" xmlns="http://www.w3.org/2000/svg">
<path d="M56.1275 25.3175C56.1275 30.7125 55.1525 33.8975 51.9675 39.065C48.685 44.33 42.25 49.4975 37.57 51.9025L36.075 49.01C40.105 46.15 42.705 43.9075 45.565 38.415C46.3775 36.855 46.8325 35.49 47.0925 34.255C46.475 34.385 45.7925 34.45 45.11 34.45C39.195 34.45 34.4175 29.64 34.4175 23.725C34.4175 17.81 39.195 13 45.11 13C50.0175 13 54.1775 16.315 55.4125 20.865C55.8675 22.165 56.1275 23.6275 56.1275 25.3175Z" fill="#141414"/>
<path d="M28.21 25.3175C28.21 30.7125 27.235 33.8975 24.05 39.065C20.7675 44.33 14.3325 49.4975 9.6525 51.9025L8.1575 49.01C12.1875 46.15 14.7875 43.9075 17.6475 38.415C18.46 36.855 18.915 35.49 19.175 34.255C18.5575 34.385 17.875 34.45 17.1925 34.45C11.2775 34.45 6.5 29.64 6.5 23.725C6.5 17.81 11.2775 13 17.1925 13C22.1 13 26.26 16.315 27.495 20.865C27.95 22.165 28.21 23.6275 28.21 25.3175Z" fill="#141414"/>
</svg>
