<svg width="24" height="24" viewBox="0 0 24 24" fill="none" xmlns="http://www.w3.org/2000/svg">
<g clip-path="url(#clip0_258_382)">
<path fill-rule="evenodd" clip-rule="evenodd" d="M15.0162 22.6486H5.47231C4.53915 22.6486 3.7804 21.8898 3.7804 20.957L3.78055 3.04194C3.78055 2.10917 4.53906 1.35036 5.47216 1.35036L15.0163 1.35034C15.949 1.35034 16.708 2.10919 16.708 3.04194L16.708 6.23881C16.708 6.37351 16.5988 6.4827 16.4642 6.4827C16.3297 6.48268 16.2203 6.37355 16.2203 6.23888L16.2203 3.04194C16.2203 2.3781 15.6801 1.83807 15.0162 1.83807H5.47233C4.80838 1.83807 4.26813 2.37813 4.26813 3.04194L4.26828 20.957C4.26828 21.6207 4.80838 22.1609 5.47218 22.1609L15.0163 22.1608C15.6802 22.1608 16.2203 21.6208 16.2203 20.957L16.2203 17.7601C16.2203 17.6254 16.3295 17.5163 16.4642 17.5163C16.5989 17.5162 16.708 17.6254 16.708 17.7601L16.708 20.957C16.708 21.8897 15.9489 22.6486 15.0162 22.6486Z" fill="#D13A1F"/>
<path fill-rule="evenodd" clip-rule="evenodd" d="M16.4641 3.95051H4.0244C3.88971 3.95051 3.7804 3.84142 3.7804 3.70674C3.78055 3.57205 3.88961 3.46289 4.02426 3.46289H16.4642C16.5989 3.46289 16.708 3.57206 16.708 3.70674C16.708 3.84135 16.5988 3.95058 16.4641 3.95051ZM16.4641 20.536H4.0244C3.88971 20.536 3.7804 20.4269 3.7804 20.2922C3.78055 20.1575 3.88961 20.0484 4.02426 20.0484L16.4642 20.0483C16.5989 20.0483 16.708 20.1575 16.708 20.2922C16.708 20.4269 16.5988 20.5361 16.4641 20.536ZM15.8753 17.5163H17.0531V16.5104C17.0531 16.3928 17.1369 16.2919 17.2529 16.2706C17.8563 16.16 18.4193 15.9266 18.926 15.5769C19.023 15.51 19.1538 15.522 19.2372 15.6052L19.9485 16.3168L20.7813 15.484L20.0701 14.7725C19.9866 14.6893 19.9747 14.5585 20.0416 14.4616C20.3915 13.9547 20.6246 13.3917 20.7355 12.7882C20.7567 12.6724 20.8574 12.5883 20.9751 12.5883L21.9808 12.5883V11.4106H20.9752C20.8575 11.4106 20.7567 11.3266 20.7355 11.2108C20.6247 10.6074 20.3913 10.0443 20.0416 9.53728C19.9748 9.44035 19.9866 9.3096 20.07 9.22639L20.7813 8.51491L19.9485 7.68208L19.2373 8.39366C19.1539 8.47691 19.023 8.48879 18.926 8.42203C18.4193 8.07245 17.8562 7.8391 17.2529 7.72833C17.1369 7.70703 17.0531 7.60619 17.0531 7.48847V6.48269H15.8753V7.48843C15.8753 7.60615 15.791 7.70708 15.6754 7.72834C15.0723 7.83898 14.509 8.07246 14.0018 8.42211C13.9053 8.48891 13.7745 8.47699 13.691 8.39381L12.9794 7.68218L12.1467 8.51491L12.8585 9.2264C12.9417 9.30967 12.9536 9.4405 12.8866 9.53736C12.5371 10.0441 12.3037 10.6072 12.1927 11.2108C12.1716 11.3266 12.0708 11.4106 11.9527 11.4106L10.9472 11.4106V12.5883H11.9531C12.0709 12.5883 12.1716 12.6724 12.1927 12.7882C12.3037 13.3914 12.537 13.9544 12.8866 14.4616C12.9537 14.5585 12.9417 14.6893 12.8583 14.7725L12.1467 15.484L12.9794 16.3168L13.6912 15.6052C13.7745 15.522 13.9053 15.5102 14.0018 15.577C14.5091 15.9266 15.0717 16.1601 15.6754 16.2708C15.7915 16.292 15.8752 16.3929 15.8752 16.5106L15.8753 17.5163ZM17.2969 18.0039H15.6314C15.4967 18.0039 15.3875 17.8948 15.3875 17.7601L15.3876 16.7094C14.8572 16.589 14.3566 16.3816 13.8951 16.0908L13.1522 16.834C13.1065 16.8798 13.0441 16.9055 12.9794 16.9055C12.915 16.9055 12.8528 16.8799 12.807 16.8341L11.6298 15.6564C11.5346 15.5612 11.5344 15.4069 11.6296 15.3116L12.3728 14.5681C12.0819 14.1066 11.8744 13.6063 11.7541 13.0761L10.7033 13.076C10.5688 13.076 10.4595 12.9669 10.4595 12.8322V11.1668C10.4595 11.032 10.5687 10.923 10.7033 10.923L11.7542 10.923C11.8744 10.3924 12.0818 9.89198 12.3727 9.43068L11.6292 8.68734C11.5835 8.64161 11.5581 8.57962 11.5581 8.51492C11.5582 8.45016 11.5835 8.38821 11.6292 8.34248L12.8072 7.16483C12.9025 7.06958 13.0569 7.06967 13.1521 7.16488L13.8956 7.90832C14.3571 7.6174 14.857 7.41006 15.3875 7.2896L15.3876 6.23883C15.3876 6.10413 15.4967 5.99503 15.6314 5.99503L17.2969 5.99497C17.4316 5.99497 17.5407 6.10422 17.5407 6.2389L17.5408 7.28952C18.0714 7.41002 18.5717 7.61751 19.0327 7.90818L19.7763 7.16483C19.822 7.1191 19.8841 7.09345 19.9484 7.09345C20.0132 7.09345 20.0755 7.11911 20.1212 7.16487L21.2987 8.34241C21.394 8.43767 21.3939 8.59214 21.2986 8.68737L20.5557 9.43054C20.8464 9.89207 21.0535 10.3925 21.1741 10.9229L22.2246 10.9229C22.3591 10.9229 22.4684 11.0321 22.4684 11.1668L22.4685 12.8321C22.4685 12.9668 22.3591 13.076 22.2245 13.076L21.1741 13.076C21.0535 13.6065 20.846 14.1069 20.5552 14.5683L21.2987 15.3116C21.3445 15.3573 21.3701 15.4194 21.3701 15.4841C21.3702 15.5487 21.3443 15.6107 21.2986 15.6565L20.1213 16.834C20.0261 16.9293 19.8714 16.9293 19.7761 16.8341L19.0327 16.0906C18.5713 16.3815 18.0708 16.589 17.5407 16.7094L17.5408 17.7601C17.5408 17.8948 17.4315 18.004 17.2969 18.0039Z" fill="#D13A1F"/>
<path fill-rule="evenodd" clip-rule="evenodd" d="M16.4641 9.07774C14.8533 9.07774 13.5424 10.3885 13.5424 11.9995C13.5426 13.6105 14.8532 14.9213 16.4641 14.9213C18.0751 14.9213 19.3858 13.6106 19.3858 11.9995C19.3859 10.3884 18.075 9.07774 16.4641 9.07774ZM16.4641 15.409C14.5839 15.409 13.0547 13.8795 13.0547 11.9995C13.0548 10.1195 14.5839 8.59009 16.4641 8.59009C18.344 8.59003 19.8735 10.1195 19.8735 11.9995C19.8736 13.8794 18.3439 15.409 16.4641 15.409Z" fill="#D13A1F"/>
<path fill-rule="evenodd" clip-rule="evenodd" d="M16.8892 12.1777C16.8021 12.1777 16.7181 12.131 16.6741 12.0489L15.824 10.4603C15.7606 10.3415 15.8053 10.1938 15.9239 10.1302C16.0429 10.0668 16.1906 10.1115 16.2541 10.2302L17.1042 11.8187C17.1679 11.9374 17.1229 12.0852 17.0039 12.1488C16.9677 12.1683 16.9281 12.1777 16.8892 12.1777ZM15.435 12.1776C15.383 12.1776 15.3299 12.1608 15.285 12.126L14.2416 11.3116C14.1823 11.2654 14.1479 11.1945 14.1479 11.1193C14.148 11.0442 14.1821 10.9733 14.2414 10.9271L15.2856 10.1127C15.3913 10.0298 15.5446 10.0487 15.6275 10.1549C15.7107 10.2611 15.6915 10.4144 15.5852 10.4972L14.7882 11.1193L15.5853 11.7415C15.6916 11.8244 15.7105 11.9776 15.6275 12.0838C15.5794 12.1454 15.5077 12.1776 15.435 12.1776ZM17.4929 12.1776C17.4205 12.1776 17.3485 12.1454 17.3007 12.0838C17.2178 11.9775 17.2367 11.8244 17.343 11.7415L18.1403 11.1193L17.3432 10.4971C17.2368 10.4144 17.2177 10.2611 17.3007 10.1549C17.3838 10.0487 17.5369 10.0298 17.6428 10.1127L18.6865 10.927C18.7457 10.9732 18.7804 11.0442 18.7804 11.1193C18.7804 11.1944 18.7456 11.2654 18.6864 11.3116L17.6428 12.126C17.5984 12.1607 17.5454 12.1776 17.4929 12.1776ZM17.9189 13.0577H15.0095C14.8748 13.0577 14.7655 12.9486 14.7655 12.8139C14.7657 12.6792 14.8748 12.57 15.0094 12.57L17.9189 12.57C18.0536 12.57 18.1626 12.6792 18.1626 12.8139C18.1628 12.9485 18.0536 13.0577 17.9189 13.0577ZM17.9189 13.9378H15.0095C14.8748 13.9378 14.7655 13.8287 14.7655 13.694C14.7657 13.5593 14.8748 13.4501 15.0094 13.4501L17.9189 13.45C18.0536 13.45 18.1626 13.5593 18.1626 13.694C18.1628 13.8286 18.0536 13.9378 17.9189 13.9378ZM14.0369 6.32463H6.45098C6.31646 6.32463 6.20711 6.21546 6.20711 6.08078C6.20711 5.94609 6.31632 5.83696 6.45098 5.83696L14.0369 5.83691C14.172 5.83691 14.2808 5.94611 14.2808 6.08078C14.2808 6.21538 14.172 6.32465 14.0369 6.32463ZM10.6107 8.69208H6.45098C6.31646 8.69208 6.20711 8.58295 6.20711 8.44827C6.20711 8.31352 6.31632 8.20442 6.45098 8.20442L10.6107 8.20436C10.7452 8.20436 10.8545 8.31359 10.8545 8.44827C10.8546 8.58292 10.7452 8.69214 10.6107 8.69208ZM9.18639 11.0595H6.45096C6.31645 11.0595 6.2071 10.9504 6.2071 10.8157C6.2071 10.681 6.31631 10.5718 6.45096 10.5718L9.18639 10.5718C9.32108 10.5718 9.4302 10.681 9.4302 10.8157C9.43024 10.9504 9.32098 11.0596 9.18639 11.0595ZM9.44815 13.427H6.45096C6.31645 13.427 6.20709 13.3179 6.20709 13.1832C6.20709 13.0485 6.31631 12.9393 6.45096 12.9393L9.44815 12.9393C9.58265 12.9393 9.69186 13.0485 9.69186 13.1832C9.692 13.3178 9.58279 13.427 9.44815 13.427ZM10.3491 15.7945H6.45098C6.31646 15.7945 6.20711 15.6853 6.20711 15.5507C6.20711 15.416 6.31632 15.3068 6.45098 15.3068H10.3491C10.4836 15.3068 10.5928 15.416 10.5928 15.5507C10.5928 15.6853 10.4835 15.7945 10.3491 15.7945ZM14.0369 18.162H6.45098C6.31646 18.162 6.20711 18.0529 6.20711 17.9182C6.20711 17.7834 6.31632 17.6743 6.45098 17.6743L14.0369 17.6743C14.172 17.6743 14.2808 17.7835 14.2808 17.9182C14.2808 18.0528 14.172 18.162 14.0369 18.162Z" fill="#D13A1F"/>
</g>
<defs>
<clipPath id="clip0_258_382">
<rect width="24" height="24" fill="white"/>
</clipPath>
</defs>
</svg>
