<svg width="60" height="60" viewBox="0 0 60 60" fill="none" xmlns="http://www.w3.org/2000/svg">
<path d="M43.7203 53.0484C43.6444 53.0486 43.5696 53.03 43.5028 52.994L39.375 50.8256L35.2472 52.995C35.1698 53.0355 35.0826 53.0537 34.9954 53.0473C34.9082 53.0409 34.8246 53.0103 34.7539 52.959C34.6832 52.9076 34.6283 52.8375 34.5954 52.7565C34.5624 52.6756 34.5528 52.5871 34.5675 52.5009L35.3559 47.9053L32.0165 44.6503C31.9541 44.5891 31.91 44.5118 31.8892 44.4269C31.8685 44.3421 31.8718 44.2531 31.8989 44.17C31.926 44.087 31.9758 44.0131 32.0426 43.9568C32.1095 43.9006 32.1907 43.8641 32.2772 43.8515L36.8915 43.1803L38.9559 38.999C39.1134 38.6784 39.6393 38.6784 39.7959 38.999L41.8603 43.1803L46.4747 43.8515C46.5611 43.8641 46.6423 43.9006 46.7092 43.9568C46.776 44.0131 46.8258 44.087 46.8529 44.17C46.88 44.2531 46.8833 44.3421 46.8626 44.4269C46.8418 44.5118 46.7977 44.5891 46.7353 44.6503L43.3959 47.9053L44.1843 52.5009C44.1958 52.5683 44.1924 52.6374 44.1744 52.7034C44.1563 52.7694 44.1241 52.8306 44.0798 52.8828C44.0356 52.9349 43.9805 52.9768 43.9184 53.0054C43.8563 53.034 43.7887 53.0487 43.7203 53.0484ZM39.375 49.8272C39.45 49.8272 39.525 49.845 39.5925 49.8815L43.0978 51.7237L42.4284 47.8209C42.4155 47.7461 42.4211 47.6692 42.4446 47.597C42.4681 47.5248 42.5089 47.4594 42.5634 47.4065L45.3993 44.6428L41.4806 44.0728C41.4054 44.0621 41.334 44.0332 41.2726 43.9885C41.2112 43.9439 41.1615 43.885 41.1281 43.8168L39.375 40.2647L37.6218 43.8159C37.5883 43.884 37.5387 43.9429 37.4773 43.9875C37.4158 44.0321 37.3445 44.0611 37.2693 44.0718L33.3506 44.6418L36.1865 47.4056C36.2972 47.5134 36.3468 47.6681 36.3215 47.82L35.6522 51.7228L39.1575 49.8806C39.2245 49.8454 39.2992 49.827 39.375 49.8272ZM23.3203 45.6253C23.2444 45.6255 23.1696 45.6068 23.1028 45.5709L21.5822 44.7722L20.0615 45.5709C19.9841 45.6115 19.8969 45.6296 19.8098 45.6232C19.7226 45.6169 19.639 45.5863 19.5683 45.5349C19.4976 45.4835 19.4427 45.4134 19.4097 45.3325C19.3768 45.2515 19.3671 45.163 19.3818 45.0769L19.6725 43.3837L18.4425 42.1847C18.3798 42.1236 18.3354 42.0461 18.3145 41.9611C18.2936 41.8761 18.2968 41.787 18.324 41.7037C18.3511 41.6205 18.401 41.5465 18.468 41.4902C18.535 41.4338 18.6164 41.3974 18.7031 41.385L20.4028 41.1384L21.1631 39.5981C21.2019 39.5198 21.2617 39.454 21.336 39.4079C21.4102 39.3619 21.4958 39.3375 21.5831 39.3375C21.6704 39.3375 21.756 39.3619 21.8302 39.4079C21.9044 39.454 21.9643 39.5198 22.0031 39.5981L22.7634 41.1384L24.4631 41.385C24.5497 41.3974 24.6312 41.4338 24.6982 41.4902C24.7652 41.5465 24.8151 41.6205 24.8422 41.7037C24.8693 41.787 24.8726 41.8761 24.8517 41.9611C24.8307 42.0461 24.7864 42.1236 24.7237 42.1847L23.4937 43.3837L23.7843 45.0769C23.796 45.1443 23.7927 45.2136 23.7747 45.2796C23.7567 45.3457 23.7245 45.407 23.6803 45.4593C23.636 45.5116 23.5809 45.5536 23.5187 45.5822C23.4565 45.6109 23.3888 45.6256 23.3203 45.6253ZM19.7775 42.1781L20.5031 42.8859C20.6137 42.9937 20.6634 43.1484 20.6381 43.3003L20.4665 44.2997L21.3647 43.8281C21.4318 43.7926 21.5066 43.774 21.5826 43.774C21.6586 43.774 21.7334 43.7926 21.8006 43.8281L22.6987 44.2997L22.5272 43.3003C22.5143 43.2254 22.5198 43.1486 22.5433 43.0764C22.5669 43.0042 22.6076 42.9388 22.6622 42.8859L23.3878 42.1781L22.3847 42.0328C22.3095 42.0221 22.2381 41.9932 22.1767 41.9486C22.1152 41.9039 22.0656 41.845 22.0322 41.7769L21.5831 40.8675L21.134 41.7769C21.1006 41.8451 21.0511 41.904 20.9896 41.9487C20.9282 41.9933 20.8567 42.0222 20.7815 42.0328L19.7775 42.1781ZM41.7384 37.889C41.64 37.889 41.5441 37.8581 41.4643 37.8006C41.3845 37.743 41.3248 37.6619 41.2937 37.5685C41.2626 37.4752 41.2616 37.3744 41.291 37.2805C41.3203 37.1866 41.3784 37.1043 41.4572 37.0453L45.0197 34.3734V7.88904H33.7697V34.3734L37.3312 37.0453C37.3805 37.0822 37.422 37.1285 37.4533 37.1815C37.4847 37.2344 37.5053 37.2931 37.514 37.354C37.5227 37.4149 37.5193 37.477 37.504 37.5366C37.4888 37.5963 37.4619 37.6523 37.425 37.7015C37.388 37.7508 37.3418 37.7923 37.2888 37.8236C37.2358 37.855 37.1772 37.8756 37.1163 37.8843C37.0553 37.893 36.9933 37.8896 36.9336 37.8744C36.874 37.8591 36.818 37.8322 36.7687 37.7953L33.0187 34.9828C32.9605 34.9391 32.9132 34.8825 32.8807 34.8174C32.8482 34.7523 32.8312 34.6806 32.8312 34.6078V7.42029C32.8312 7.29597 32.8806 7.17674 32.9685 7.08883C33.0564 7.00092 33.1756 6.95154 33.3 6.95154H45.4875C45.6118 6.95154 45.731 7.00092 45.8189 7.08883C45.9068 7.17674 45.9562 7.29597 45.9562 7.42029V34.6078C45.9562 34.6806 45.9393 34.7523 45.9067 34.8174C45.8742 34.8825 45.8269 34.9391 45.7687 34.9828L42.0187 37.7953C41.938 37.8562 41.8396 37.8891 41.7384 37.889ZM25.8009 34.139H17.3634C17.2391 34.139 17.1199 34.0897 17.0319 34.0017C16.944 33.9138 16.8947 33.7946 16.8947 33.6703V10.2328C16.8947 10.1085 16.944 9.98924 17.0319 9.90133C17.1199 9.81342 17.2391 9.76404 17.3634 9.76404H25.8009C25.9252 9.76404 26.0445 9.81342 26.1324 9.90133C26.2203 9.98924 26.2697 10.1085 26.2697 10.2328V33.6703C26.2697 33.7946 26.2203 33.9138 26.1324 34.0017C26.0445 34.0897 25.9252 34.139 25.8009 34.139ZM17.8322 33.2015H25.3322V10.7015H17.8322V33.2015Z" fill="#D13A1F"/>
<path d="M22.9884 34.139H20.1759C20.0516 34.139 19.9324 34.0897 19.8444 34.0017C19.7565 33.9138 19.7072 33.7946 19.7072 33.6703V10.2328C19.7072 10.1085 19.7565 9.98924 19.8444 9.90133C19.9324 9.81342 20.0516 9.76404 20.1759 9.76404H22.9884C23.1127 9.76404 23.232 9.81342 23.3199 9.90133C23.4078 9.98924 23.4572 10.1085 23.4572 10.2328V33.6703C23.4572 33.7946 23.4078 33.9138 23.3199 34.0017C23.232 34.0897 23.1127 34.139 22.9884 34.139ZM20.6447 33.2015H22.5197V10.7015H20.6447V33.2015Z" fill="#D13A1F"/>
<path d="M25.3322 36.9515H25.0781C24.9538 36.9515 24.8345 36.9022 24.7466 36.8142C24.6587 36.7263 24.6093 36.6071 24.6093 36.4828C24.6093 36.3585 24.6587 36.2392 24.7466 36.1513C24.8345 36.0634 24.9538 36.014 25.0781 36.014H25.3322C25.8487 36.014 26.2697 35.5931 26.2697 35.0765C26.2697 34.56 25.8487 34.139 25.3322 34.139H17.8322C17.3156 34.139 16.8947 34.56 16.8947 35.0765C16.8947 35.5931 17.3156 36.014 17.8322 36.014H18.0468C18.1712 36.014 18.2904 36.0634 18.3783 36.1513C18.4662 36.2392 18.5156 36.3585 18.5156 36.4828C18.5156 36.6071 18.4662 36.7263 18.3783 36.8142C18.2904 36.9022 18.1712 36.9515 18.0468 36.9515H17.8322C16.7981 36.9515 15.9572 36.1106 15.9572 35.0765C15.9572 34.0425 16.7981 33.2015 17.8322 33.2015H25.3322C26.3662 33.2015 27.2072 34.0425 27.2072 35.0765C27.2072 36.1106 26.3662 36.9515 25.3322 36.9515Z" fill="#D13A1F"/>
<path d="M42.6759 36.7632C42.5516 36.7632 42.4324 36.7138 42.3444 36.6259C42.2565 36.538 42.2072 36.4188 42.2072 36.2944V7.88818H36.5822V36.2944C36.5822 36.4188 36.5328 36.538 36.4449 36.6259C36.357 36.7138 36.2377 36.7632 36.1134 36.7632C35.9891 36.7632 35.8699 36.7138 35.7819 36.6259C35.694 36.538 35.6447 36.4188 35.6447 36.2944V7.41943C35.6447 7.29511 35.694 7.17589 35.7819 7.08798C35.8699 7.00007 35.9891 6.95068 36.1134 6.95068H42.6759C42.8002 6.95068 42.9195 7.00007 43.0074 7.08798C43.0953 7.17589 43.1447 7.29511 43.1447 7.41943V36.2944C43.1447 36.4188 43.0953 36.538 43.0074 36.6259C42.9195 36.7138 42.8002 36.7632 42.6759 36.7632ZM39.3947 39.7641C39.2882 39.7637 39.1849 39.7277 39.1012 39.6619L36.7575 37.7869C36.6684 37.7067 36.6134 37.5955 36.6037 37.4761C36.594 37.3567 36.6302 37.2381 36.7051 37.1445C36.78 37.0509 36.8878 36.9895 37.0064 36.9729C37.1251 36.9562 37.2456 36.9855 37.3434 37.0547L39.3947 38.6954L41.4459 37.0547C41.5437 36.9855 41.6642 36.9562 41.7829 36.9729C41.9015 36.9895 42.0093 37.0509 42.0842 37.1445C42.1591 37.2381 42.1953 37.3567 42.1856 37.4761C42.1759 37.5955 42.1209 37.7067 42.0318 37.7869L39.6881 39.6619C39.6044 39.7277 39.5011 39.7637 39.3947 39.7641Z" fill="#D13A1F"/>
<path d="M42.8906 36.9515H35.8594C35.7351 36.9515 35.6158 36.9022 35.5279 36.8142C35.44 36.7263 35.3906 36.6071 35.3906 36.4828C35.3906 36.3585 35.44 36.2392 35.5279 36.1513C35.6158 36.0634 35.7351 36.014 35.8594 36.014H42.8906C43.0149 36.014 43.1342 36.0634 43.2221 36.1513C43.31 36.2392 43.3594 36.3585 43.3594 36.4828C43.3594 36.6071 43.31 36.7263 43.2221 36.8142C43.1342 36.9022 43.0149 36.9515 42.8906 36.9515Z" fill="#D13A1F"/>
<path d="M21.5625 50.0765C17.4272 50.0765 14.0625 46.7119 14.0625 42.5765C14.0625 38.4412 17.4272 35.0765 21.5625 35.0765C25.6978 35.0765 29.0625 38.4412 29.0625 42.5765C29.0625 46.7119 25.6978 50.0765 21.5625 50.0765ZM21.5625 36.014C17.9438 36.014 15 38.9578 15 42.5765C15 46.1953 17.9438 49.139 21.5625 49.139C25.1812 49.139 28.125 46.1953 28.125 42.5765C28.125 38.9578 25.1812 36.014 21.5625 36.014Z" fill="#D13A1F"/>
<path d="M38.4572 32.2594H40.3322V34.1344H38.4572V32.2594ZM38.4572 28.5094H40.3322V30.3844H38.4572V28.5094ZM38.4572 24.7594H40.3322V26.6344H38.4572V24.7594ZM38.4572 21.0094H40.3322V22.8844H38.4572V21.0094ZM38.4572 17.2594H40.3322V19.1344H38.4572V17.2594ZM38.4572 13.5094H40.3322V15.3844H38.4572V13.5094ZM38.4572 9.7594H40.3322V11.6344H38.4572V9.7594Z" fill="#D13A1F"/>
<path d="M21.5822 37.8882C21.841 37.8882 22.0509 37.6783 22.0509 37.4194C22.0509 37.1606 21.841 36.9507 21.5822 36.9507C21.3233 36.9507 21.1134 37.1606 21.1134 37.4194C21.1134 37.6783 21.3233 37.8882 21.5822 37.8882Z" fill="#D13A1F"/>
<path d="M21.5822 48.2007C21.841 48.2007 22.0509 47.9908 22.0509 47.7319C22.0509 47.4731 21.841 47.2632 21.5822 47.2632C21.3233 47.2632 21.1134 47.4731 21.1134 47.7319C21.1134 47.9908 21.3233 48.2007 21.5822 48.2007Z" fill="#D13A1F"/>
<path d="M26.7384 43.0444C26.9973 43.0444 27.2072 42.8346 27.2072 42.5757C27.2072 42.3168 26.9973 42.1069 26.7384 42.1069C26.4795 42.1069 26.2697 42.3168 26.2697 42.5757C26.2697 42.8346 26.4795 43.0444 26.7384 43.0444Z" fill="#D13A1F"/>
<path d="M16.4259 43.0444C16.6848 43.0444 16.8947 42.8346 16.8947 42.5757C16.8947 42.3168 16.6848 42.1069 16.4259 42.1069C16.167 42.1069 15.9572 42.3168 15.9572 42.5757C15.9572 42.8346 16.167 43.0444 16.4259 43.0444Z" fill="#D13A1F"/>
<path d="M25.5589 39.2614C25.7419 39.0783 25.7419 38.7815 25.5589 38.5985C25.3758 38.4154 25.079 38.4154 24.896 38.5985C24.7129 38.7815 24.7129 39.0783 24.896 39.2614C25.079 39.4444 25.3758 39.4444 25.5589 39.2614Z" fill="#D13A1F"/>
<path d="M18.2668 46.5526C18.4498 46.3696 18.4498 46.0728 18.2668 45.8897C18.0837 45.7067 17.7869 45.7067 17.6039 45.8897C17.4208 46.0728 17.4208 46.3696 17.6039 46.5526C17.7869 46.7357 18.0837 46.7357 18.2668 46.5526Z" fill="#D13A1F"/>
<path d="M25.5589 46.5532C25.7419 46.3702 25.7419 46.0734 25.5589 45.8903C25.3758 45.7073 25.079 45.7073 24.896 45.8903C24.7129 46.0734 24.7129 46.3702 24.896 46.5533C25.079 46.7363 25.3758 46.7363 25.5589 46.5532Z" fill="#D13A1F"/>
<path d="M18.2674 39.2605C18.4505 39.0775 18.4505 38.7807 18.2674 38.5976C18.0844 38.4145 17.7876 38.4146 17.6045 38.5976C17.4215 38.7807 17.4215 39.0775 17.6045 39.2605C17.7876 39.4436 18.0844 39.4436 18.2674 39.2605Z" fill="#D13A1F"/>
<path d="M23.994 37.9926C24.0933 37.7535 23.9799 37.4792 23.7408 37.38C23.5018 37.2807 23.2275 37.394 23.1282 37.6331C23.0289 37.8722 23.1422 38.1465 23.3813 38.2458C23.6204 38.3451 23.8947 38.2317 23.994 37.9926Z" fill="#D13A1F"/>
<path d="M20.0396 47.5167C20.1389 47.2776 20.0255 47.0033 19.7864 46.904C19.5473 46.8047 19.273 46.9181 19.1738 47.1572C19.0745 47.3963 19.1878 47.6706 19.4269 47.7698C19.666 47.8691 19.9403 47.7558 20.0396 47.5167Z" fill="#D13A1F"/>
<path d="M26.7775 44.732C26.8768 44.4929 26.7634 44.2186 26.5244 44.1193C26.2853 44.0201 26.011 44.1334 25.9117 44.3725C25.8124 44.6116 25.9258 44.8859 26.1648 44.9852C26.4039 45.0844 26.6782 44.9711 26.7775 44.732Z" fill="#D13A1F"/>
<path d="M17.2541 40.7785C17.3534 40.5394 17.24 40.2651 17.0009 40.1659C16.7618 40.0666 16.4875 40.1799 16.3882 40.419C16.289 40.6581 16.4023 40.9324 16.6414 41.0317C16.8805 41.131 17.1548 41.0176 17.2541 40.7785Z" fill="#D13A1F"/>
<path d="M26.5259 41.0406C26.7651 40.9417 26.8789 40.6676 26.7801 40.4283C26.6812 40.1891 26.4071 40.0753 26.1678 40.1741C25.9286 40.273 25.8148 40.5471 25.9136 40.7864C26.0125 41.0256 26.2866 41.1394 26.5259 41.0406Z" fill="#D13A1F"/>
<path d="M16.9952 44.9787C17.2344 44.8798 17.3482 44.6057 17.2494 44.3664C17.1505 44.1272 16.8764 44.0134 16.6371 44.1122C16.3979 44.2111 16.2841 44.4852 16.3829 44.7245C16.4818 44.9637 16.7559 45.0775 16.9952 44.9787Z" fill="#D13A1F"/>
<path d="M23.7289 47.7747C23.9682 47.6758 24.082 47.4017 23.9831 47.1625C23.8843 46.9232 23.6102 46.8094 23.3709 46.9083C23.1316 47.0071 23.0178 47.2812 23.1167 47.5205C23.2156 47.7598 23.4897 47.8736 23.7289 47.7747Z" fill="#D13A1F"/>
<path d="M19.7908 38.2437C20.03 38.1448 20.1438 37.8707 20.045 37.6315C19.9461 37.3922 19.672 37.2784 19.4327 37.3773C19.1935 37.4761 19.0797 37.7502 19.1785 37.9895C19.2774 38.2288 19.5515 38.3426 19.7908 38.2437Z" fill="#D13A1F"/>
</svg>
