<svg width="60" height="60" viewBox="0 0 60 60" fill="none" xmlns="http://www.w3.org/2000/svg">
<path d="M17.1458 54.375H43.0629C44.7013 54.375 46.0419 53.0039 46.0419 51.3281V8.67188C46.0419 6.99609 44.7013 5.625 43.0629 5.625H17.1458C15.5074 5.625 14.1669 6.99609 14.1669 8.67188V51.3281C14.1669 53.0039 15.5074 54.375 17.1458 54.375ZM44.5524 45.6152H15.6564V13.166H44.6269L44.5524 45.6152ZM15.6564 8.67188C15.6564 7.83398 16.3266 7.14844 17.1458 7.14844H43.0629C43.8821 7.14844 44.5524 7.83398 44.5524 8.67188V11.6426H15.6564V8.67188ZM15.6564 47.1387H44.6269V51.3281C44.6269 52.166 43.9566 52.8516 43.1374 52.8516H17.1458C16.3266 52.8516 15.6564 52.166 15.6564 51.3281V47.1387ZM30.1044 48.0527C31.147 48.0527 31.9662 48.8906 31.9662 49.957C31.9662 51.0234 31.147 51.8613 30.1044 51.8613C29.0617 51.8613 28.2425 51.0234 28.2425 49.957C28.2425 48.8906 29.0617 48.0527 30.1044 48.0527ZM32.3386 9.05273H27.8701C27.4233 9.05273 27.1254 9.35742 27.1254 9.81445C27.1254 10.2715 27.4233 10.5762 27.8701 10.5762H32.3386C32.7854 10.5762 33.0833 10.2715 33.0833 9.81445C33.0833 9.35742 32.711 9.05273 32.3386 9.05273ZM17.4437 24.7441L20.1248 25.8867V33.3516C20.1248 33.7324 20.4227 34.0371 20.7951 34.1133C24.1464 34.5703 27.2743 36.2461 29.583 38.8359C29.8809 39.1406 30.4023 39.1406 30.7002 38.8359C32.9344 36.2461 36.0623 34.5703 39.4137 34.1133C39.786 34.0371 40.0839 33.7324 40.0839 33.3516V25.8867L41.7224 25.2012V29.9238C41.7224 30.3809 42.0203 30.6855 42.4671 30.6855C42.9139 30.6855 43.2118 30.3809 43.2118 29.9238V24.0586C43.2118 23.7539 43.0629 23.4492 42.765 23.373L30.4023 18.2695C30.2533 18.1934 30.0299 18.1934 29.8065 18.2695L17.4437 23.373C16.8479 23.6016 16.8479 24.5156 17.4437 24.7441ZM38.5944 32.666C35.392 33.1992 32.4131 34.7988 30.1044 37.1602C27.7957 34.7988 24.8167 33.1992 21.6143 32.666V26.4961L29.8065 29.9238C29.9554 30 30.1788 30 30.4023 29.9238L38.5944 26.4961V32.666ZM30.1044 19.793L40.4563 24.0586L30.1044 28.4004L19.7524 24.1348L30.1044 19.793ZM42.4671 31.4473C42.0203 31.4473 41.7224 31.752 41.7224 32.209V32.5898C41.7224 33.0469 42.0203 33.3516 42.4671 33.3516C42.9139 33.3516 43.2118 33.0469 43.2118 32.5898V32.209C43.2118 31.752 42.8395 31.4473 42.4671 31.4473Z" fill="#D13A1F"/>
</svg>
