<svg width="392" height="392" viewBox="0 0 392 392" fill="none" xmlns="http://www.w3.org/2000/svg">
<path d="M191.987 300.533C203.513 300.533 214.713 298.667 225.12 295.167L292.693 132.813H99.1667L122.5 189.047L192.313 188.113L148.447 291.247C161.747 297.22 176.447 300.58 191.987 300.58V300.533Z" fill="black" fill-opacity="0.06"/>
<path d="M336.56 226.94L382.667 196.327L336.56 165.667C330.557 139.555 317.429 115.621 298.637 96.5237C279.845 77.4268 256.125 63.9159 230.113 57.4933L197.12 9.33331L164.92 56.2333C137.464 61.8739 112.241 75.3763 92.3226 95.0961C72.4039 114.816 58.6491 139.902 52.7333 167.3L9.33334 196.28L52.8733 225.307C58.8095 252.825 72.6558 278.01 92.7107 297.767C112.766 317.523 138.155 330.99 165.76 336.513L197.26 382.667L229.6 335.3C255.749 328.986 279.615 315.497 298.512 296.353C317.409 277.208 330.587 253.168 336.56 226.94ZM194.88 315.7C128.147 315.7 73.8734 262.173 73.8734 196.327C73.8734 130.48 128.1 76.9067 194.88 76.9067C261.613 76.9067 315.887 130.48 315.887 196.327C315.887 262.127 261.66 315.7 194.88 315.7Z" fill="black" fill-opacity="0.06"/>
<path d="M40.4133 159.693L26.1333 169.167C30.857 138.349 44.1861 109.49 64.5867 85.9133L57.68 60.6667L83.1134 67.4333C107.423 46.4218 137.201 32.7467 168.98 28L159.32 42.0933C130.486 48.5817 104.053 63.036 83.0311 83.8105C62.0091 104.585 47.2428 130.845 40.4133 159.6V159.693ZM349.067 157.92C342.207 130.48 328.11 105.384 308.245 85.2485C288.381 65.1134 263.478 50.6775 236.133 43.4466L226.193 29.0733C255.916 34.4823 283.657 47.7245 306.553 67.4333L331.38 60.8066L324.66 85.3067C344.862 108.595 358.22 137.024 363.253 167.44L349.02 157.92H349.067ZM363.3 221.9L348.88 231.373C341.98 258.758 327.849 283.787 307.966 303.842C288.083 323.898 263.178 338.244 235.853 345.38L225.913 359.94C254.51 354.702 281.31 342.29 303.8 323.867L332.267 331.473L324.613 303.66C344.82 280.484 358.225 252.172 363.347 221.853L363.3 221.9ZM40.4133 229.6C47.2789 258.308 62.0625 284.514 83.0828 305.238C104.103 325.961 130.517 340.37 159.32 346.827L169.12 360.873C138.304 356.28 109.335 343.337 85.3534 323.447L54.9733 331.52L63.14 301.327C43.6057 278.157 30.8052 250.07 26.1333 220.127L40.4133 229.647V229.6Z" fill="black" fill-opacity="0.06"/>
</svg>
