<svg width="22" height="21" viewBox="0 0 22 21" fill="none" xmlns="http://www.w3.org/2000/svg">
<path d="M1.25 16.4375H8.90375L8.59138 18.3125H7.25C6.73325 18.3125 6.3125 18.7332 6.3125 19.25V19.625C6.3125 19.9351 6.56488 20.1875 6.875 20.1875H15.125C15.4351 20.1875 15.6875 19.9351 15.6875 19.625V19.25C15.6875 18.7332 15.2668 18.3125 14.75 18.3125H13.409L13.0966 16.4375H20.75C21.2668 16.4375 21.6875 16.0168 21.6875 15.5V4.25C21.6875 3.73325 21.2668 3.3125 20.75 3.3125H20V3.6875H20.75C21.0601 3.6875 21.3125 3.93988 21.3125 4.25V15.5C21.3125 15.8101 21.0601 16.0625 20.75 16.0625H12.875H9.125H1.25C0.939875 16.0625 0.6875 15.8101 0.6875 15.5V4.25C0.6875 3.93988 0.939875 3.6875 1.25 3.6875H2V3.3125H1.25C0.73325 3.3125 0.3125 3.73325 0.3125 4.25V15.5C0.3125 16.0168 0.73325 16.4375 1.25 16.4375ZM15.3125 19.25V19.625C15.3125 19.7285 15.2285 19.8125 15.125 19.8125H6.875C6.7715 19.8125 6.6875 19.7285 6.6875 19.625V19.25C6.6875 18.9399 6.93988 18.6875 7.25 18.6875C8.88912 18.6875 13.1319 18.6875 14.75 18.6875C15.0601 18.6875 15.3125 18.9399 15.3125 19.25ZM12.7164 16.4375L13.0287 18.3125H8.97125L9.28362 16.4375H12.7164Z" fill="#D13A1F"/>
<path d="M20.9375 4.625C20.9375 4.31488 20.6851 4.0625 20.375 4.0625H20V4.4375H20.375C20.4785 4.4375 20.5625 4.5215 20.5625 4.625V13.625C20.5625 13.7285 20.4785 13.8125 20.375 13.8125H1.625C1.5215 13.8125 1.4375 13.7285 1.4375 13.625V4.625C1.4375 4.5215 1.5215 4.4375 1.625 4.4375H2V4.0625H1.625C1.31488 4.0625 1.0625 4.31488 1.0625 4.625V13.625C1.0625 13.9351 1.31488 14.1875 1.625 14.1875H20.375C20.6851 14.1875 20.9375 13.9351 20.9375 13.625V4.625Z" fill="#D13A1F"/>
<path d="M20.375 14.5625H18.875C18.5649 14.5625 18.3125 14.8149 18.3125 15.125C18.3125 15.4351 18.5649 15.6875 18.875 15.6875H20.375C20.6851 15.6875 20.9375 15.4351 20.9375 15.125C20.9375 14.8149 20.6851 14.5625 20.375 14.5625ZM20.375 15.3125H18.875C18.7715 15.3125 18.6875 15.2285 18.6875 15.125C18.6875 15.0215 18.7715 14.9375 18.875 14.9375H20.375C20.4785 14.9375 20.5625 15.0215 20.5625 15.125C20.5625 15.2285 20.4785 15.3125 20.375 15.3125Z" fill="#D13A1F"/>
<path d="M16.8125 15.125C16.8125 15.4351 17.0649 15.6875 17.375 15.6875C17.6851 15.6875 17.9375 15.4351 17.9375 15.125C17.9375 14.8149 17.6851 14.5625 17.375 14.5625C17.0649 14.5625 16.8125 14.8149 16.8125 15.125ZM17.5625 15.125C17.5625 15.2285 17.4785 15.3125 17.375 15.3125C17.2715 15.3125 17.1875 15.2285 17.1875 15.125C17.1875 15.0215 17.2715 14.9375 17.375 14.9375C17.4785 14.9375 17.5625 15.0215 17.5625 15.125Z" fill="#D13A1F"/>
<path d="M8 12.6875H14H18.875C19.1851 12.6875 19.4375 12.4351 19.4375 12.125C19.4375 5.54938 19.4375 7.46262 19.4375 0.875C19.4375 0.564875 19.1851 0.3125 18.875 0.3125C16.9809 0.3125 4.98725 0.3125 3.125 0.3125C2.81488 0.3125 2.5625 0.564875 2.5625 0.875C2.5625 7.46262 2.5625 5.54938 2.5625 12.125C2.5625 12.4351 2.81488 12.6875 3.125 12.6875H8ZM8.1875 2.9375H13.8125V12.3125H8.1875V2.9375ZM19.0625 12.125C19.0625 12.2285 18.9785 12.3125 18.875 12.3125H14.1875V2.9375H19.0625V12.125ZM19.0625 0.875V2.5625H14.1875V0.6875H18.875C18.9785 0.6875 19.0625 0.7715 19.0625 0.875ZM13.8125 2.5625H8.1875V0.6875H13.8125V2.5625ZM2.9375 0.875C2.9375 0.7715 3.0215 0.6875 3.125 0.6875H7.8125V2.5625H2.9375V0.875ZM2.9375 12.125V2.9375H7.8125V12.3125H3.125C3.0215 12.3125 2.9375 12.2285 2.9375 12.125Z" fill="#D13A1F"/>
<path d="M4.25 5.1875H6.5C6.81013 5.1875 7.0625 4.93512 7.0625 4.625C7.0625 4.31488 6.81013 4.0625 6.5 4.0625H4.25C3.93988 4.0625 3.6875 4.31488 3.6875 4.625C3.6875 4.93512 3.93988 5.1875 4.25 5.1875ZM4.25 4.4375H6.5C6.6035 4.4375 6.6875 4.5215 6.6875 4.625C6.6875 4.7285 6.6035 4.8125 6.5 4.8125H4.25C4.1465 4.8125 4.0625 4.7285 4.0625 4.625C4.0625 4.5215 4.1465 4.4375 4.25 4.4375Z" fill="#D13A1F"/>
<path d="M6.5 1.0625H4.25C3.93988 1.0625 3.6875 1.31488 3.6875 1.625C3.6875 1.93512 3.93988 2.1875 4.25 2.1875H6.5C6.81013 2.1875 7.0625 1.93512 7.0625 1.625C7.0625 1.31488 6.81013 1.0625 6.5 1.0625ZM6.5 1.8125H4.25C4.1465 1.8125 4.0625 1.7285 4.0625 1.625C4.0625 1.5215 4.1465 1.4375 4.25 1.4375H6.5C6.6035 1.4375 6.6875 1.5215 6.6875 1.625C6.6875 1.7285 6.6035 1.8125 6.5 1.8125Z" fill="#D13A1F"/>
<path d="M9.5 2.1875H12.5C12.8101 2.1875 13.0625 1.93512 13.0625 1.625C13.0625 1.31488 12.8101 1.0625 12.5 1.0625H9.5C9.18988 1.0625 8.9375 1.31488 8.9375 1.625C8.9375 1.93512 9.18988 2.1875 9.5 2.1875ZM9.5 1.4375H12.5C12.6035 1.4375 12.6875 1.5215 12.6875 1.625C12.6875 1.7285 12.6035 1.8125 12.5 1.8125H9.5C9.3965 1.8125 9.3125 1.7285 9.3125 1.625C9.3125 1.5215 9.3965 1.4375 9.5 1.4375Z" fill="#D13A1F"/>
<path d="M15.125 2.1875H18.125C18.4351 2.1875 18.6875 1.93512 18.6875 1.625C18.6875 1.31488 18.4351 1.0625 18.125 1.0625H15.125C14.8149 1.0625 14.5625 1.31488 14.5625 1.625C14.5625 1.93512 14.8149 2.1875 15.125 2.1875ZM15.125 1.4375H18.125C18.2285 1.4375 18.3125 1.5215 18.3125 1.625C18.3125 1.7285 18.2285 1.8125 18.125 1.8125H15.125C15.0215 1.8125 14.9375 1.7285 14.9375 1.625C14.9375 1.5215 15.0215 1.4375 15.125 1.4375Z" fill="#D13A1F"/>
<path d="M15.125 5.1875H18.125C18.4351 5.1875 18.6875 4.93512 18.6875 4.625C18.6875 4.31488 18.4351 4.0625 18.125 4.0625H15.125C14.8149 4.0625 14.5625 4.31488 14.5625 4.625C14.5625 4.93512 14.8149 5.1875 15.125 5.1875ZM15.125 4.4375H18.125C18.2285 4.4375 18.3125 4.5215 18.3125 4.625C18.3125 4.7285 18.2285 4.8125 18.125 4.8125H15.125C15.0215 4.8125 14.9375 4.7285 14.9375 4.625C14.9375 4.5215 15.0215 4.4375 15.125 4.4375Z" fill="#D13A1F"/>
<path d="M12.5 4.0625H9.5C9.18988 4.0625 8.9375 4.31488 8.9375 4.625C8.9375 4.93512 9.18988 5.1875 9.5 5.1875H12.5C12.8101 5.1875 13.0625 4.93512 13.0625 4.625C13.0625 4.31488 12.8101 4.0625 12.5 4.0625ZM12.5 4.8125H9.5C9.3965 4.8125 9.3125 4.7285 9.3125 4.625C9.3125 4.5215 9.3965 4.4375 9.5 4.4375H12.5C12.6035 4.4375 12.6875 4.5215 12.6875 4.625C12.6875 4.7285 12.6035 4.8125 12.5 4.8125Z" fill="#D13A1F"/>
<path d="M12.5 5.5625H9.5C9.18988 5.5625 8.9375 5.81488 8.9375 6.125C8.9375 6.43512 9.18988 6.6875 9.5 6.6875H12.5C12.8101 6.6875 13.0625 6.43512 13.0625 6.125C13.0625 5.81488 12.8101 5.5625 12.5 5.5625ZM12.5 6.3125H9.5C9.3965 6.3125 9.3125 6.2285 9.3125 6.125C9.3125 6.0215 9.3965 5.9375 9.5 5.9375H12.5C12.6035 5.9375 12.6875 6.0215 12.6875 6.125C12.6875 6.2285 12.6035 6.3125 12.5 6.3125Z" fill="#D13A1F"/>
<path d="M12.5 7.0625H9.5C9.18988 7.0625 8.9375 7.31488 8.9375 7.625C8.9375 7.93512 9.18988 8.1875 9.5 8.1875H12.5C12.8101 8.1875 13.0625 7.93512 13.0625 7.625C13.0625 7.31488 12.8101 7.0625 12.5 7.0625ZM12.5 7.8125H9.5C9.3965 7.8125 9.3125 7.7285 9.3125 7.625C9.3125 7.5215 9.3965 7.4375 9.5 7.4375H12.5C12.6035 7.4375 12.6875 7.5215 12.6875 7.625C12.6875 7.7285 12.6035 7.8125 12.5 7.8125Z" fill="#D13A1F"/>
<path d="M4.25 6.6875H6.5C6.81013 6.6875 7.0625 6.43512 7.0625 6.125C7.0625 5.81488 6.81013 5.5625 6.5 5.5625H4.25C3.93988 5.5625 3.6875 5.81488 3.6875 6.125C3.6875 6.43512 3.93988 6.6875 4.25 6.6875ZM4.25 5.9375H6.5C6.6035 5.9375 6.6875 6.0215 6.6875 6.125C6.6875 6.2285 6.6035 6.3125 6.5 6.3125H4.25C4.1465 6.3125 4.0625 6.2285 4.0625 6.125C4.0625 6.0215 4.1465 5.9375 4.25 5.9375Z" fill="#D13A1F"/>
<path d="M15.125 6.6875H18.125C18.4351 6.6875 18.6875 6.43512 18.6875 6.125C18.6875 5.81488 18.4351 5.5625 18.125 5.5625H15.125C14.8149 5.5625 14.5625 5.81488 14.5625 6.125C14.5625 6.43512 14.8149 6.6875 15.125 6.6875ZM15.125 5.9375H18.125C18.2285 5.9375 18.3125 6.0215 18.3125 6.125C18.3125 6.2285 18.2285 6.3125 18.125 6.3125H15.125C15.0215 6.3125 14.9375 6.2285 14.9375 6.125C14.9375 6.0215 15.0215 5.9375 15.125 5.9375Z" fill="#D13A1F"/>
<path d="M4.25 8.1875H6.5C6.81013 8.1875 7.0625 7.93512 7.0625 7.625C7.0625 7.31488 6.81013 7.0625 6.5 7.0625H4.25C3.93988 7.0625 3.6875 7.31488 3.6875 7.625C3.6875 7.93512 3.93988 8.1875 4.25 8.1875ZM4.25 7.4375H6.5C6.6035 7.4375 6.6875 7.5215 6.6875 7.625C6.6875 7.7285 6.6035 7.8125 6.5 7.8125H4.25C4.1465 7.8125 4.0625 7.7285 4.0625 7.625C4.0625 7.5215 4.1465 7.4375 4.25 7.4375Z" fill="#D13A1F"/>
<path d="M4.25 9.6875H6.5C6.81013 9.6875 7.0625 9.43512 7.0625 9.125C7.0625 8.81488 6.81013 8.5625 6.5 8.5625H4.25C3.93988 8.5625 3.6875 8.81488 3.6875 9.125C3.6875 9.43512 3.93988 9.6875 4.25 9.6875ZM4.25 8.9375H6.5C6.6035 8.9375 6.6875 9.0215 6.6875 9.125C6.6875 9.2285 6.6035 9.3125 6.5 9.3125H4.25C4.1465 9.3125 4.0625 9.2285 4.0625 9.125C4.0625 9.0215 4.1465 8.9375 4.25 8.9375Z" fill="#D13A1F"/>
<path d="M17.0352 8.43195L16.3876 9.07958L16.2605 8.95208C16.0505 8.74208 15.6845 8.74208 15.4752 8.95208C15.2589 9.16845 15.2589 9.52058 15.4752 9.73733L15.9954 10.2575C16.1037 10.3658 16.2459 10.4198 16.388 10.4198C16.5301 10.4198 16.6722 10.3655 16.7806 10.2575L17.8205 9.21758C17.9255 9.11258 17.9832 8.97308 17.9832 8.82495C17.9832 8.67645 17.9255 8.53695 17.8205 8.43233C17.6109 8.22233 17.2452 8.22233 17.0352 8.43195ZM17.555 8.95208L16.5151 9.99195C16.4446 10.0625 16.3306 10.0625 16.2601 9.99195L15.7404 9.47183C15.6699 9.40133 15.6699 9.28733 15.7404 9.21683C15.7741 9.1827 15.8195 9.16395 15.8675 9.16395C15.9155 9.16395 15.9609 9.1827 15.995 9.21683L16.2549 9.4767C16.328 9.54983 16.4469 9.54983 16.52 9.4767L17.3 8.6967C17.3686 8.62845 17.4871 8.62883 17.555 8.6967C17.5891 8.73045 17.6079 8.77583 17.6079 8.82383C17.6082 8.87258 17.5891 8.91795 17.555 8.95208Z" fill="#D13A1F"/>
</svg>
