<svg width="24" height="24" viewBox="0 0 24 24" fill="none" xmlns="http://www.w3.org/2000/svg">
<path d="M22.1625 20.4L20.2875 18.525C19.95 18.1875 19.425 18.1125 19.0125 18.3L18.525 17.8125C19.125 17.1 19.5 16.1625 19.5 15.1875C19.5 12.9 17.6625 11.0625 15.375 11.0625C15.075 11.0625 14.775 11.1 14.5125 11.175C13.1625 9.225 10.9875 8.0625 8.625 8.0625C4.6875 8.0625 1.5 11.25 1.5 15.1875C1.5 19.125 4.6875 22.3125 8.625 22.3125C10.9875 22.3125 13.1625 21.15 14.5125 19.2C14.8125 19.275 15.075 19.3125 15.375 19.3125C16.3875 19.3125 17.2875 18.9375 18 18.3375L18.4875 18.825C18.3 19.2375 18.375 19.7625 18.7125 20.1L20.5875 21.975C20.8125 22.2 21.1125 22.3125 21.375 22.3125C21.675 22.3125 21.9375 22.2 22.1625 21.975C22.6125 21.5625 22.6125 20.85 22.1625 20.4ZM2.2875 15.5625H4.9125C4.95 16.35 5.025 17.0625 5.1375 17.775C4.425 17.9625 3.75 18.1875 3.1875 18.45C2.6625 17.5875 2.325 16.6125 2.2875 15.5625ZM3.225 11.85C3.825 12.1125 4.4625 12.3375 5.175 12.525C5.025 13.2375 4.95 14.025 4.9125 14.85H2.2875C2.325 13.725 2.6625 12.7125 3.225 11.85ZM11.2875 14.8125H9V12.9C9.825 12.8625 10.6125 12.7875 11.3625 12.675C11.4375 13.0125 11.475 13.35 11.5125 13.6875C11.4 14.025 11.2875 14.4 11.2875 14.8125ZM9 12.15V8.8875C9.9 9.15 10.725 10.275 11.175 11.9625C10.5 12.0375 9.75 12.1125 9 12.15ZM8.25 8.8875V12.15C7.5 12.1125 6.75 12.075 6.075 11.925C6.525 10.3125 7.35 9.1125 8.25 8.8875ZM8.25 12.9V14.8125H5.625C5.6625 14.0625 5.7375 13.3125 5.8875 12.675C6.6375 12.7875 7.425 12.8625 8.25 12.9ZM5.625 15.5625H8.25V17.3625C7.425 17.4 6.6375 17.475 5.85 17.625C5.7375 16.95 5.6625 16.275 5.625 15.5625ZM8.25 18.1125V21.525C7.3125 21.2625 6.4875 20.025 6.0375 18.3375C6.75 18.1875 7.5 18.1125 8.25 18.1125ZM9 21.4875V18.075C9.75 18.1125 10.5 18.1875 11.2125 18.3C10.7625 20.0625 9.9375 21.2625 9 21.4875ZM9 17.3625V15.5625H11.2875C11.325 15.975 11.4 16.35 11.55 16.6875C11.5125 16.9875 11.475 17.2875 11.4 17.5875C10.6125 17.475 9.825 17.3625 9 17.3625ZM12.15 17.7375L12.1875 17.775C12.15 17.775 12.15 17.775 12.15 17.7375C12.1125 17.7375 12.1125 17.7375 12.15 17.7375ZM12.15 12.6375C12.15 12.6 12.15 12.525 12.1125 12.4875C12.1875 12.4875 12.225 12.45 12.3 12.45C12.225 12.525 12.1875 12.5625 12.15 12.6375ZM13.6125 11.2125C13.0875 11.4375 12.525 11.625 11.925 11.775C11.625 10.6875 11.175 9.7875 10.6125 9.15C11.775 9.525 12.825 10.2375 13.6125 11.2125ZM6.6375 9.15C6.075 9.7875 5.625 10.6875 5.325 11.775C4.725 11.625 4.1625 11.4375 3.675 11.2125C4.425 10.275 5.4375 9.525 6.6375 9.15ZM3.6 19.0875C4.125 18.8625 4.6875 18.675 5.325 18.4875C5.625 19.6125 6.075 20.55 6.675 21.225C5.4 20.8125 4.35 20.0625 3.6 19.0875ZM10.6125 21.225C11.175 20.55 11.6625 19.6125 11.9625 18.4875C12.5625 18.6375 13.1625 18.825 13.6875 19.0875C12.9 20.1 11.8125 20.85 10.6125 21.225ZM12 15.1875C12 13.3125 13.5 11.8125 15.375 11.8125C17.25 11.8125 18.75 13.3125 18.75 15.1875C18.75 17.0625 17.25 18.5625 15.375 18.5625C13.5 18.5625 12 17.0625 12 15.1875ZM21.6375 21.45C21.4875 21.6 21.2625 21.6 21.1125 21.45L19.2375 19.575C19.0875 19.425 19.0875 19.2 19.2375 19.05C19.3125 18.975 19.425 18.9375 19.5 18.9375C19.6125 18.9375 19.6875 18.975 19.7625 19.05L21.6375 20.925C21.7875 21.075 21.7875 21.3 21.6375 21.45Z" fill="#D13A1F"/>
<path d="M17.625 14.8125C17.4 14.8125 17.25 14.9625 17.25 15.1875C17.25 16.2375 16.425 17.0625 15.375 17.0625C15.15 17.0625 15 17.2125 15 17.4375C15 17.6625 15.15 17.8125 15.375 17.8125C16.8375 17.8125 18 16.65 18 15.1875C18 14.9625 17.85 14.8125 17.625 14.8125ZM10.125 3.9375H18C18.225 3.9375 18.375 3.7875 18.375 3.5625C18.375 3.3375 18.225 3.1875 18 3.1875H10.125C9.9 3.1875 9.75 3.3375 9.75 3.5625C9.75 3.7875 9.9 3.9375 10.125 3.9375ZM20.25 3.9375H20.625C20.85 3.9375 21 3.7875 21 3.5625C21 3.3375 20.85 3.1875 20.625 3.1875H20.25C20.025 3.1875 19.875 3.3375 19.875 3.5625C19.875 3.7875 20.025 3.9375 20.25 3.9375ZM19.125 3.9375C19.2375 3.9375 19.3125 3.9 19.3875 3.825C19.4625 3.75 19.5 3.675 19.5 3.5625C19.5 3.45 19.4625 3.375 19.3875 3.3C19.2375 3.15 19.0125 3.15 18.8625 3.3C18.7875 3.375 18.75 3.45 18.75 3.5625C18.75 3.675 18.7875 3.75 18.8625 3.825C18.9375 3.9 19.0125 3.9375 19.125 3.9375Z" fill="#D13A1F"/>
<path d="M5.25 7.6875C5.475 7.6875 5.625 7.5375 5.625 7.3125V4.6875C5.625 4.0125 6.1875 3.9375 6.375 3.9375H8.2875C8.475 4.8 9.225 5.4375 10.125 5.4375H12.75V7.3125C12.75 7.4625 12.825 7.6125 12.975 7.65C13.0125 7.6875 13.0875 7.6875 13.125 7.6875C13.2375 7.6875 13.3125 7.65 13.3875 7.575L15.525 5.4375H19.5V7.3125C19.5 7.9875 18.9375 8.0625 18.75 8.0625H16.5C16.275 8.0625 16.125 8.2125 16.125 8.4375C16.125 8.6625 16.275 8.8125 16.5 8.8125H18.75C19.35 8.8125 20.25 8.4 20.25 7.3125V5.4375H20.625C21.675 5.4375 22.5 4.6125 22.5 3.5625C22.5 2.5125 21.675 1.6875 20.625 1.6875H10.125C9.225 1.6875 8.475 2.325 8.2875 3.1875H6.375C5.775 3.1875 4.875 3.6 4.875 4.6875V7.3125C4.875 7.5375 5.025 7.6875 5.25 7.6875ZM10.125 2.4375H20.625C21.2625 2.4375 21.75 2.925 21.75 3.5625C21.75 4.2 21.2625 4.6875 20.625 4.6875H15.375C15.2625 4.6875 15.1875 4.725 15.1125 4.8L13.5 6.4125V5.0625C13.5 4.8375 13.35 4.6875 13.125 4.6875H10.125C9.4875 4.6875 9 4.2 9 3.5625C9 2.925 9.4875 2.4375 10.125 2.4375Z" fill="#D13A1F"/>
</svg>
