<svg width="20" height="20" viewBox="0 0 20 20" fill="none" xmlns="http://www.w3.org/2000/svg">
<path d="M13.9225 11.7572C14.1363 11.2547 14.3091 10.6757 14.4363 10.0367C14.4595 9.92012 14.3699 9.8125 14.2525 9.8125H13.75V10.1875H14.0215C13.9053 10.7129 13.7564 11.1906 13.5775 11.6102L13.9225 11.7572Z" fill="#D13A1F"/>
<path d="M7.14586 5.43738C6.88599 6.17087 6.77724 6.97525 6.83161 7.76312L7.20586 7.73725C7.15786 7.04462 7.24486 6.33925 7.45711 5.68787H9.90324C9.86124 6.08912 9.83574 6.4405 9.82374 6.78025L10.1987 6.79337C10.2119 6.40637 10.2437 6.00213 10.2989 5.52175C10.3112 5.41038 10.225 5.3125 10.1125 5.3125H7.32249C7.24299 5.3125 7.17249 5.36238 7.14586 5.43738Z" fill="#D13A1F"/>
<path d="M14.0234 1.73303C13.8591 1.69216 13.726 1.87816 13.8242 2.02141C14.2645 2.65966 14.6226 3.64066 14.8326 4.78403C14.8491 4.87291 14.9267 4.93778 15.0171 4.93778H17.5971C17.7392 4.93778 17.8285 4.78628 17.7629 4.66291C16.9885 3.19516 15.6254 2.12753 14.0234 1.73303ZM15.1727 4.56241C14.9916 3.64403 14.7246 2.85053 14.3905 2.23103C15.5905 2.64241 16.6146 3.46778 17.2757 4.56241H15.1727Z" fill="#D13A1F"/>
<path d="M14.2116 9.0625H13.75V9.4375H14.3762C14.47 9.4375 14.5491 9.36813 14.5619 9.2755C14.7299 8.05563 14.7299 6.70562 14.5619 5.4745C14.5495 5.38187 14.47 5.3125 14.3762 5.3125H10.8737C10.78 5.3125 10.7005 5.38188 10.6881 5.47488C10.6484 5.76738 10.6184 6.05838 10.6004 6.33925L10.9746 6.36362C10.9889 6.14312 11.0106 5.91663 11.0387 5.6875H14.2116C14.347 6.78663 14.347 7.97237 14.2116 9.0625Z" fill="#D13A1F"/>
<path d="M18.1038 9.31338C18.5474 8.07963 18.5474 6.66625 18.1038 5.43662C18.0768 5.36237 18.0063 5.3125 17.9271 5.3125H15.1375C15.0243 5.3125 14.9376 5.41187 14.9515 5.5225C15.0993 6.75362 15.0993 8.00012 14.9515 9.22787C14.938 9.33738 15.0239 9.43787 15.1375 9.43787H17.9271C18.0066 9.4375 18.0771 9.388 18.1038 9.31338ZM15.3475 9.0625C15.4671 7.94313 15.4671 6.80988 15.3475 5.6875H17.7936C18.151 6.76562 18.151 7.981 17.7936 9.0625H15.3475Z" fill="#D13A1F"/>
<path d="M15.0175 9.8125C14.9271 9.8125 14.8495 9.877 14.833 9.96625C14.6226 11.1092 14.2645 12.0906 13.8246 12.7289C13.7282 12.8695 13.855 13.0585 14.0241 13.0173C15.6257 12.6224 16.9885 11.5548 17.7636 10.0878C17.8289 9.96438 17.74 9.81287 17.5979 9.81287L15.0175 9.8125ZM14.3905 12.5189C14.7246 11.8994 14.9916 11.1059 15.1727 10.1875H17.2757C16.6146 11.2814 15.5905 12.1075 14.3905 12.5189Z" fill="#D13A1F"/>
<path d="M11.2266 1.73317C9.62501 2.12767 8.26188 3.1953 7.48676 4.66267C7.42151 4.78605 7.51038 4.93755 7.65251 4.93755H10.2325C10.3229 4.93755 10.4005 4.87305 10.417 4.7838C10.6274 3.6408 10.9855 2.65942 11.4254 2.02117C11.5244 1.87717 11.3894 1.6908 11.2266 1.73317ZM10.0773 4.56255H7.97426C8.63576 3.4683 9.65951 2.64255 10.8595 2.23117C10.5254 2.85067 10.2584 3.64417 10.0773 4.56255Z" fill="#D13A1F"/>
<path d="M12.625 1.5625C11.9309 1.5625 11.1861 2.85812 10.8138 4.71287C10.7905 4.82875 10.879 4.9375 10.9975 4.9375H14.2525C14.371 4.9375 14.4595 4.82875 14.4363 4.71287C14.0639 2.85812 13.3191 1.5625 12.625 1.5625ZM11.2289 4.5625C11.6118 2.848 12.2744 1.9375 12.625 1.9375C12.9756 1.9375 13.6379 2.848 14.0211 4.5625H11.2289Z" fill="#D13A1F"/>
<path d="M12.625 0.8125C8.63463 0.8125 5.76401 4.312 6.07826 7.76688L6.45176 7.73275C6.15738 4.495 8.85813 1.1875 12.625 1.1875C16.0368 1.1875 18.8125 3.96325 18.8125 7.375C18.8125 10.3615 16.669 12.9239 13.7159 13.4684L13.7841 13.837C16.915 13.2602 19.1875 10.5426 19.1875 7.375C19.1875 3.75662 16.2434 0.8125 12.625 0.8125Z" fill="#D13A1F"/>
<path d="M18.625 16.5625H14.875C14.5649 16.5625 14.3125 16.8149 14.3125 17.125C14.3125 17.4351 14.5649 17.6875 14.875 17.6875H18.625C18.9351 17.6875 19.1875 17.4351 19.1875 17.125C19.1875 16.8149 18.9351 16.5625 18.625 16.5625ZM18.625 17.3125H14.875C14.7719 17.3125 14.6875 17.2285 14.6875 17.125C14.6875 17.0215 14.7719 16.9375 14.875 16.9375H18.625C18.7281 16.9375 18.8125 17.0215 18.8125 17.125C18.8125 17.2285 18.7281 17.3125 18.625 17.3125Z" fill="#D13A1F"/>
<path d="M14.875 16.1875H15.625C15.9351 16.1875 16.1875 15.9351 16.1875 15.625C16.1875 15.3149 15.9351 15.0625 15.625 15.0625H14.875C14.5649 15.0625 14.3125 15.3149 14.3125 15.625C14.3125 15.9351 14.5649 16.1875 14.875 16.1875ZM14.875 15.4375H15.625C15.7281 15.4375 15.8125 15.5215 15.8125 15.625C15.8125 15.7285 15.7281 15.8125 15.625 15.8125H14.875C14.7719 15.8125 14.6875 15.7285 14.6875 15.625C14.6875 15.5215 14.7719 15.4375 14.875 15.4375Z" fill="#D13A1F"/>
<path d="M18.625 15.0625H17.125C16.8149 15.0625 16.5625 15.3149 16.5625 15.625C16.5625 15.9351 16.8149 16.1875 17.125 16.1875H18.625C18.9351 16.1875 19.1875 15.9351 19.1875 15.625C19.1875 15.3149 18.9351 15.0625 18.625 15.0625ZM18.625 15.8125H17.125C17.0219 15.8125 16.9375 15.7285 16.9375 15.625C16.9375 15.5215 17.0219 15.4375 17.125 15.4375H18.625C18.7281 15.4375 18.8125 15.5215 18.8125 15.625C18.8125 15.7285 18.7281 15.8125 18.625 15.8125Z" fill="#D13A1F"/>
<path d="M1.375 4.9375H5.125C5.43512 4.9375 5.6875 4.68512 5.6875 4.375C5.6875 4.06488 5.43512 3.8125 5.125 3.8125H1.375C1.06488 3.8125 0.8125 4.06488 0.8125 4.375C0.8125 4.68512 1.06488 4.9375 1.375 4.9375ZM1.375 4.1875H5.125C5.22813 4.1875 5.3125 4.2715 5.3125 4.375C5.3125 4.4785 5.22813 4.5625 5.125 4.5625H1.375C1.27187 4.5625 1.1875 4.4785 1.1875 4.375C1.1875 4.2715 1.27187 4.1875 1.375 4.1875Z" fill="#D13A1F"/>
<path d="M5.125 0.8125H1.375C1.06488 0.8125 0.8125 1.06488 0.8125 1.375C0.8125 1.68512 1.06488 1.9375 1.375 1.9375H5.125C5.43512 1.9375 5.6875 1.68512 5.6875 1.375C5.6875 1.06488 5.43512 0.8125 5.125 0.8125ZM5.125 1.5625H1.375C1.27187 1.5625 1.1875 1.4785 1.1875 1.375C1.1875 1.2715 1.27187 1.1875 1.375 1.1875H5.125C5.22813 1.1875 5.3125 1.2715 5.3125 1.375C5.3125 1.4785 5.22813 1.5625 5.125 1.5625Z" fill="#D13A1F"/>
<path d="M18.625 18.0625H14.875C14.5649 18.0625 14.3125 18.3149 14.3125 18.625C14.3125 18.9351 14.5649 19.1875 14.875 19.1875H18.625C18.9351 19.1875 19.1875 18.9351 19.1875 18.625C19.1875 18.3149 18.9351 18.0625 18.625 18.0625ZM18.625 18.8125H14.875C14.7719 18.8125 14.6875 18.7285 14.6875 18.625C14.6875 18.5215 14.7719 18.4375 14.875 18.4375H18.625C18.7281 18.4375 18.8125 18.5215 18.8125 18.625C18.8125 18.7285 18.7281 18.8125 18.625 18.8125Z" fill="#D13A1F"/>
<path d="M1.375 3.4375H2.125C2.43512 3.4375 2.6875 3.18512 2.6875 2.875C2.6875 2.56488 2.43512 2.3125 2.125 2.3125H1.375C1.06488 2.3125 0.8125 2.56488 0.8125 2.875C0.8125 3.18512 1.06488 3.4375 1.375 3.4375ZM1.375 2.6875H2.125C2.22812 2.6875 2.3125 2.7715 2.3125 2.875C2.3125 2.9785 2.22812 3.0625 2.125 3.0625H1.375C1.27187 3.0625 1.1875 2.9785 1.1875 2.875C1.1875 2.7715 1.27187 2.6875 1.375 2.6875Z" fill="#D13A1F"/>
<path d="M5.125 2.3125H3.625C3.31488 2.3125 3.0625 2.56488 3.0625 2.875C3.0625 3.18512 3.31488 3.4375 3.625 3.4375H5.125C5.43513 3.4375 5.6875 3.18512 5.6875 2.875C5.6875 2.56488 5.43513 2.3125 5.125 2.3125ZM5.125 3.0625H3.625C3.52187 3.0625 3.4375 2.9785 3.4375 2.875C3.4375 2.7715 3.52187 2.6875 3.625 2.6875H5.125C5.22813 2.6875 5.3125 2.7715 5.3125 2.875C5.3125 2.9785 5.22813 3.0625 5.125 3.0625Z" fill="#D13A1F"/>
<path d="M11.875 16.1875H12.625C12.9351 16.1875 13.1875 15.9351 13.1875 15.625V6.625C13.1875 6.31488 12.9351 6.0625 12.625 6.0625H11.875C11.5649 6.0625 11.3125 6.31488 11.3125 6.625V6.87287C9.05237 7.77737 11.7925 6.6835 7.714 8.3125H2.5C1.56963 8.3125 0.8125 9.06962 0.8125 10V12.25C0.8125 13.1733 1.55912 13.9112 2.45912 13.9334C2.48762 14.0249 3.38838 17.1846 3.41463 17.2765C3.48213 17.5184 3.70412 17.6875 3.955 17.6875H5.425C5.79737 17.6875 6.06737 17.3286 5.965 16.9724L5.52813 15.4375H5.755C6.12738 15.4375 6.39738 15.079 6.29537 14.7228L6.07187 13.9375H7.71362C9.21325 14.5371 8.30237 14.173 11.3125 15.3771V15.625C11.3125 15.9351 11.5649 16.1875 11.875 16.1875ZM11.3125 7.27713V14.9733L7.9375 13.6232V8.62713C12.3756 6.8545 9.04825 8.18275 11.3125 7.27713ZM11.6875 6.625C11.6875 6.5215 11.7719 6.4375 11.875 6.4375H12.625C12.7281 6.4375 12.8125 6.5215 12.8125 6.625V15.625C12.8125 15.7285 12.7281 15.8125 12.625 15.8125H11.875C11.7719 15.8125 11.6875 15.7285 11.6875 15.625C11.6875 11.2382 11.6875 18.8249 11.6875 6.625ZM5.425 17.3125H3.955C3.87025 17.3125 3.79825 17.2577 3.77537 17.1749C3.68425 16.855 2.94325 14.2555 2.851 13.9375H4.71025C4.71025 13.9375 5.55775 16.9101 5.60462 17.0755C5.63762 17.1921 5.54837 17.3125 5.425 17.3125ZM5.755 15.0625H5.42125C5.368 14.8754 5.15088 14.1104 5.101 13.9375H5.68112L5.93463 14.8255C5.96763 14.9421 5.87838 15.0625 5.755 15.0625ZM2.60125 13.5625C1.71363 13.5625 1.1875 12.937 1.1875 12.25V10C1.1875 9.27625 1.77625 8.6875 2.5 8.6875H7.5625V13.5625C6.37675 13.5625 5.266 13.5625 2.60125 13.5625Z" fill="#D13A1F"/>
</svg>
