<svg width="24" height="24" viewBox="0 0 24 24" fill="none" xmlns="http://www.w3.org/2000/svg">
<path d="M21.0733 1.5H2.92669C2.14002 1.5 1.5 2.14 1.5 2.92667V21.0733C1.5 21.86 2.14002 22.5 2.92669 22.5H21.0733C21.86 22.5 22.5 21.86 22.5 21.0733V2.92667C22.5 2.14 21.86 1.5 21.0733 1.5ZM21.0733 22.0625H2.92669C2.38119 22.0625 1.9375 21.6188 1.9375 21.0733V5.71595H3.37998V5.27845H1.9375V2.92667C1.9375 2.38117 2.38119 1.93748 2.92669 1.93748H21.0733C21.6188 1.93748 22.0625 2.38117 22.0625 2.92667V5.27845H4.61708V5.71595H22.0625V21.0733C22.0625 21.6188 21.6188 22.0625 21.0733 22.0625Z" fill="#D13A1F"/>
<path d="M3.25 15.0043H2.8125V16.1989H3.25V15.0043Z" fill="#D13A1F"/>
<path d="M3.25 19.8148V17.1898H2.8125V19.8148C2.8125 20.5717 3.42826 21.1875 4.18524 21.1875H5.48567V20.75H4.18524C3.66956 20.75 3.25 20.3304 3.25 19.8148Z" fill="#D13A1F"/>
<path d="M7.2785 20.75H6.11256V21.1875H7.2785V20.75Z" fill="#D13A1F"/>
<path d="M20.287 4.59229C20.8298 4.59229 21.2713 4.15073 21.2713 3.60792C21.2713 3.06511 20.8298 2.62354 20.287 2.62354C19.7442 2.62354 19.3026 3.06511 19.3026 3.60792C19.3026 4.15073 19.7442 4.59229 20.287 4.59229ZM20.287 3.06104C20.5885 3.06104 20.8338 3.30639 20.8338 3.60792C20.8338 3.90944 20.5885 4.15479 20.287 4.15479C19.9854 4.15479 19.7401 3.90944 19.7401 3.60792C19.7401 3.30639 19.9854 3.06104 20.287 3.06104ZM17.8343 4.59229C18.3771 4.59229 18.8186 4.15073 18.8186 3.60792C18.8186 3.06511 18.3771 2.62354 17.8343 2.62354C17.2915 2.62354 16.8499 3.06511 16.8499 3.60792C16.8499 4.15073 17.2915 4.59229 17.8343 4.59229ZM17.8343 3.06104C18.1358 3.06104 18.3811 3.30639 18.3811 3.60792C18.3811 3.90944 18.1358 4.15479 17.8343 4.15479C17.5327 4.15479 17.2874 3.90944 17.2874 3.60792C17.2874 3.30639 17.5327 3.06104 17.8343 3.06104ZM15.3817 4.59229C15.9245 4.59229 16.366 4.15073 16.366 3.60792C16.366 3.06511 15.9245 2.62354 15.3817 2.62354C14.8389 2.62354 14.3973 3.06511 14.3973 3.60792C14.3973 4.15073 14.8388 4.59229 15.3817 4.59229ZM15.3817 3.06104C15.6832 3.06104 15.9285 3.30639 15.9285 3.60792C15.9285 3.90944 15.6832 4.15479 15.3817 4.15479C15.0801 4.15479 14.8348 3.90944 14.8348 3.60792C14.8348 3.30639 15.0801 3.06104 15.3817 3.06104ZM13.8904 18.4591L13.7642 18.4973L13.4597 20.0649H11.4103L11.1057 18.4973L10.9796 18.4591C10.6658 18.364 10.3617 18.2375 10.0758 18.083L9.95924 18.0201L8.63328 18.9152L7.18343 17.4654L8.07862 16.1395L8.01571 16.023C7.86136 15.737 7.73479 15.4329 7.63952 15.119L7.60129 14.993L6.03372 14.6885V12.6389L7.60129 12.3344L7.63952 12.2084C7.73416 11.8964 7.86042 11.592 8.01464 11.3037L8.07681 11.1875L7.18343 9.86205L8.63328 8.41219L9.95775 9.30579L10.0743 9.24288C10.3589 9.08907 10.6635 8.96259 10.9796 8.8668L11.1058 8.82856L11.4102 7.26249H13.4597L13.7642 8.82856L13.8904 8.8668C14.2062 8.9625 14.5108 9.08907 14.7957 9.24288L14.9122 9.30579L16.2367 8.41219L17.6864 9.86194L16.7928 11.1864L16.8557 11.3029C17.0096 11.5877 17.136 11.8923 17.2318 12.2083L17.2701 12.3344L18.8361 12.6389V14.6884L17.2701 14.993L17.2318 15.1191C17.1379 15.429 17.0113 15.7338 16.8553 16.0252L17.2411 16.2316C17.3893 15.9546 17.5133 15.6662 17.6105 15.3725L19.2736 15.0491V12.2784L17.6105 11.955C17.526 11.6989 17.4228 11.4504 17.3025 11.2133L18.2508 9.80773L16.2909 7.84784L14.8854 8.79612C14.6482 8.67585 14.3996 8.57256 14.1437 8.48819L13.8203 6.82503H11.0496L10.7263 8.48819C10.4701 8.57267 10.2216 8.67585 9.98459 8.79612L8.57906 7.84784L6.61906 9.80762L7.56775 11.2151C7.44748 11.4537 7.34463 11.7016 7.26089 11.955L5.59622 12.2784V15.0491L7.261 15.3725C7.34517 15.6271 7.44834 15.8752 7.56893 16.1127L6.61906 17.5197L8.57906 19.4796L9.98608 18.5298C10.2236 18.6505 10.4716 18.7536 10.7263 18.8378L11.0496 20.5024H13.8203L14.1437 18.8378C14.4387 18.7404 14.7266 18.6169 15.0013 18.4699L14.7949 18.0841C14.5064 18.2384 14.202 18.3647 13.8904 18.4591Z" fill="#D13A1F"/>
<path d="M16.3792 15.397C16.62 14.8496 16.7421 14.2665 16.7421 13.6637C16.7421 11.2888 14.8099 9.35654 12.4349 9.35654C10.06 9.35654 8.12778 11.2888 8.12778 13.6637C8.12778 16.0386 10.06 17.9709 12.4349 17.9709C13.1039 17.9709 13.745 17.8217 14.3403 17.5275L14.1466 17.1353C13.612 17.3994 13.0361 17.5333 12.4349 17.5333C10.3012 17.5333 8.56528 15.7975 8.56528 13.6637C8.56528 11.5299 10.3012 9.79402 12.4349 9.79402C14.5687 9.79402 16.3046 11.5299 16.3046 13.6637C16.3046 14.2054 16.1949 14.7293 15.9786 15.2208L16.3792 15.397Z" fill="#D13A1F"/>
<path d="M14.9132 14.4576C15.2177 13.5375 15.0072 12.4829 14.2766 11.7522C13.7771 11.2527 13.1138 10.9777 12.4091 10.9777C12.054 10.9777 11.8387 11.0445 11.5218 11.0961L12.8779 12.4521L12.8294 14.0466L11.2357 14.0945L9.8788 12.7374C9.88165 12.8843 9.34763 14.3071 10.5348 15.4939C11.2635 16.2228 12.3092 16.442 13.2417 16.1322L17.3455 20.2358C17.8076 20.6982 18.556 20.6983 19.0184 20.2358C19.4797 19.7746 19.4797 19.0242 19.0184 18.5629L14.9132 14.4576ZM10.8442 15.1846C10.439 14.7794 10.2117 14.2375 10.1985 13.6759L11.0599 14.5375L13.2541 14.4715L13.3209 12.2765L12.4602 11.4158C13.029 11.4286 13.5624 11.6568 13.9673 12.0615C14.8282 12.9225 14.8282 14.3236 13.9673 15.1846C13.1041 16.0477 11.7073 16.0477 10.8442 15.1846ZM18.7092 19.9265C18.4274 20.208 17.9364 20.208 17.6548 19.9265L13.6736 15.9454C13.8922 15.8256 14.0955 15.675 14.2766 15.4939C14.4597 15.3108 14.6087 15.1065 14.7268 14.8899L18.7092 18.8721C18.9998 19.1629 18.9998 19.6358 18.7092 19.9265Z" fill="#D13A1F"/>
<path d="M18.076 19.6737C18.286 19.6737 18.4562 19.5035 18.4562 19.2935C18.4562 19.0836 18.286 18.9134 18.076 18.9134C17.866 18.9134 17.6958 19.0836 17.6958 19.2935C17.6958 19.5035 17.866 19.6737 18.076 19.6737Z" fill="#D13A1F"/>
<path d="M15.258 16.7781L16.6077 18.1279L16.9171 17.8185L15.5674 16.4688L15.258 16.7781Z" fill="#D13A1F"/>
<path d="M15.0328 15.9341L14.7234 16.2435L14.9855 16.5055L15.2948 16.1961L15.0328 15.9341Z" fill="#D13A1F"/>
<path d="M20.9707 10.6739H20.5332V16.9273H20.9707V10.6739Z" fill="#D13A1F"/>
<path d="M20.9707 8.91517H20.5332V9.68888H20.9707V8.91517Z" fill="#D13A1F"/>
<path d="M10.9894 3.3891H9.74403V3.8266H10.9894V3.3891Z" fill="#D13A1F"/>
<path d="M8.92022 3.3891H3.37994V3.8266H8.92022V3.3891Z" fill="#D13A1F"/>
</svg>
