<svg width="60" height="60" viewBox="0 0 60 60" fill="none" xmlns="http://www.w3.org/2000/svg">
<path d="M35.983 37.3085C36.053 37.5577 35.9077 37.8166 35.6584 37.8866C35.4091 37.9567 35.1503 37.8114 35.0803 37.5621L34.9311 37.0311C34.861 36.7818 35.0063 36.5229 35.2556 36.4529C35.5049 36.3829 35.7637 36.5282 35.8338 36.7774L35.983 37.3085ZM36.0074 39.1262C35.758 39.1963 35.6127 39.4552 35.6828 39.7045L35.8323 40.236C35.9024 40.4852 36.1612 40.6305 36.4104 40.5605C36.6597 40.4904 36.8051 40.2315 36.7349 39.9822L36.5855 39.4507C36.5154 39.2014 36.2566 39.0562 36.0074 39.1262ZM21.7214 20.5845C21.7214 18.9164 22.216 17.2857 23.1428 15.8987C24.0696 14.5117 25.3868 13.4306 26.928 12.7922C28.4692 12.1539 30.165 11.9868 31.8011 12.3123C33.4372 12.6377 34.9401 13.441 36.1196 14.6206C37.2992 15.8001 38.1025 17.303 38.4279 18.9391C38.7533 20.5752 38.5863 22.271 37.9479 23.8122C37.3096 25.3534 36.2285 26.6706 34.8415 27.5974C33.4545 28.5242 31.8238 29.0188 30.1556 29.0188C27.9195 29.0164 25.7756 28.127 24.1944 26.5458C22.6132 24.9646 21.7238 22.8207 21.7214 20.5845ZM22.6589 20.5845C22.6589 22.0673 23.0985 23.5167 23.9223 24.7495C24.746 25.9824 25.9169 26.9433 27.2868 27.5107C28.6566 28.0781 30.164 28.2266 31.6182 27.9373C33.0725 27.648 34.4083 26.934 35.4567 25.8856C36.5051 24.8371 37.2192 23.5013 37.5084 22.0471C37.7977 20.5928 37.6492 19.0855 37.0818 17.7156C36.5144 16.3458 35.5535 15.1749 34.3206 14.3512C33.0878 13.5274 31.6384 13.0877 30.1556 13.0877C28.1681 13.09 26.2626 13.8806 24.8571 15.286C23.4517 16.6915 22.6612 18.597 22.6589 20.5845ZM40.0032 31.4067C39.6303 31.6896 39.4134 32.1564 39.5341 32.6087L44.0986 49.7193C44.311 50.5155 43.5234 51.2125 42.759 50.9047L39.6111 49.6374C39.1988 49.4714 38.7265 49.5974 38.4517 49.9466L36.3531 52.6137C35.8435 53.2613 34.8134 53.0492 34.601 52.253L31.3272 39.98C31.0632 38.9903 29.6587 38.9903 29.3947 39.98L26.1209 52.253C25.9085 53.0492 24.8784 53.2612 24.3688 52.6137L22.2702 49.9466C21.9954 49.5974 21.5231 49.4714 21.1109 49.6373L17.963 50.9047C17.1986 51.2124 16.4109 50.5155 16.6233 49.7193L21.0771 33.0254C21.2112 32.5227 20.9299 32.0103 20.4825 31.7447C20.1458 31.5448 19.8339 31.3037 19.5544 31.0262C19.0562 30.5317 18.673 29.9336 18.432 29.2743C18.1909 28.615 18.0979 27.9108 18.1596 27.2116C18.1828 26.9477 18.2279 26.6869 18.294 26.4319C18.4591 25.7948 18.1559 25.0583 17.5895 24.723C17.0638 24.4117 16.5986 24.0011 16.2221 23.5098C15.5789 22.6703 15.2302 21.6421 15.2302 20.5845C15.2302 19.5269 15.5788 18.4988 16.2221 17.6593C16.5997 17.1665 17.0666 16.7548 17.5944 16.4431C18.1596 16.1094 18.4631 15.3766 18.2995 14.7409C18.1466 14.1473 18.1076 13.5261 18.1891 12.9105C18.3278 11.862 18.8083 10.8885 19.5562 10.1406C20.304 9.39275 21.2776 8.91224 22.3261 8.77347C22.9416 8.692 23.5629 8.73099 24.1565 8.88383C24.7921 9.04751 25.525 8.74397 25.8587 8.17876C26.1703 7.65099 26.582 7.18416 27.0749 6.80652C27.9144 6.16328 28.9425 5.81468 30.0001 5.8147C31.0577 5.81471 32.0858 6.16333 32.9253 6.8066C33.4181 7.18423 33.8298 7.65105 34.1414 8.1788C34.4751 8.74404 35.208 9.04759 35.8437 8.8839C36.4372 8.73106 37.0585 8.69206 37.674 8.77352C38.7225 8.91228 39.696 9.39278 40.4439 10.1406C41.1918 10.8885 41.6722 11.862 41.811 12.9105C41.8924 13.5261 41.8534 14.1473 41.7006 14.7409C41.5369 15.3766 41.8405 16.1094 42.4057 16.4432C42.9335 16.7548 43.4003 17.1665 43.7779 17.6593C44.4212 18.4988 44.7698 19.5269 44.7698 20.5846C44.7698 21.6422 44.4212 22.6703 43.7779 23.5098C43.3993 24.0039 42.931 24.4164 42.4016 24.7283C41.8373 25.0607 41.5334 25.7906 41.6959 26.4251C41.8482 27.0195 41.8868 27.6414 41.8052 28.2575C41.6666 29.305 41.1884 30.2782 40.4439 31.028C40.3046 31.1632 40.1574 31.2897 40.0032 31.4067ZM40.8851 27.0635C40.7767 26.2979 39.8274 26.3173 39.3877 26.9535C38.2417 28.6116 36.6657 29.9419 34.8149 30.7922C34.8113 30.7938 34.8088 30.7973 34.8084 30.8013C34.808 30.8053 34.8099 30.8092 34.8132 30.8115C35.5572 31.3265 36.4573 31.5663 37.359 31.4897C38.2629 31.4129 39.1116 31.023 39.7587 30.3872C40.4058 29.7515 40.8106 28.9098 40.9032 28.0074C40.9357 27.691 40.9291 27.3741 40.8851 27.0635ZM33.8267 31.2272C33.8283 31.2184 33.825 31.2095 33.8182 31.2039C33.8116 31.1985 33.8026 31.1969 33.7945 31.1997C31.3853 32.0411 28.7596 32.0211 26.3644 31.1443C26.3183 31.1274 26.2661 31.1377 26.2271 31.1677C26.1914 31.1951 26.1754 31.2401 26.1842 31.2842C26.3569 32.1543 26.8222 32.94 27.5036 33.5102C28.2037 34.0959 29.0873 34.4168 30 34.4168C30.9127 34.4168 31.7964 34.0959 32.4964 33.5102C33.1927 32.9276 33.6633 32.1199 33.8267 31.2272ZM30.1556 30.8792C32.1917 30.8792 34.1821 30.2754 35.8751 29.1442C37.568 28.013 38.8875 26.4052 39.6667 24.5241C40.4459 22.643 40.6497 20.573 40.2525 18.5761C39.8553 16.5791 38.8748 14.7448 37.4351 13.305C35.9953 11.8653 34.161 10.8848 32.164 10.4876C30.167 10.0904 28.0971 10.2943 26.216 11.0734C24.3349 11.8526 22.7271 13.1721 21.5959 14.8651C20.4647 16.5581 19.8609 18.5484 19.861 20.5845C19.8641 23.3139 20.9497 25.9305 22.8797 27.8605C24.8096 29.7904 27.4263 30.876 30.1556 30.8792ZM42.3199 17.5015C41.7007 17.0223 41.0374 17.7185 41.1864 18.4871C41.4549 19.8723 41.4549 21.2967 41.1864 22.682C41.0374 23.4506 41.7007 24.1467 42.3199 23.6676C42.5511 23.4886 42.7629 23.2831 42.9505 23.0539C43.5207 22.3573 43.8323 21.4848 43.8323 20.5845C43.8323 19.6843 43.5207 18.8118 42.9505 18.1152C42.7629 17.886 42.5511 17.6804 42.3199 17.5015ZM34.8133 10.357C34.8099 10.3594 34.808 10.3635 34.8085 10.3676C34.8089 10.3717 34.8114 10.3752 34.8151 10.3769C36.6658 11.2272 38.2417 12.5574 39.3877 14.2155C39.8273 14.8516 40.7766 14.8711 40.8851 14.1055C40.9292 13.7948 40.9358 13.4779 40.9033 13.1614C40.8106 12.259 40.4058 11.4172 39.7588 10.7814C39.1117 10.1456 38.263 9.7557 37.3591 9.67892C36.4574 9.60233 35.5573 9.84215 34.8133 10.357ZM26.1843 9.88422C26.1755 9.92846 26.1915 9.97358 26.2273 10.0011C26.2664 10.0312 26.3188 10.0414 26.3651 10.0245C28.7598 9.148 31.3851 9.12798 33.7939 9.9691C33.8021 9.97197 33.8112 9.97037 33.8179 9.96486C33.8249 9.95914 33.8283 9.95007 33.8266 9.94118C33.663 9.04861 33.1925 8.24114 32.4962 7.65869C31.7962 7.07312 30.9126 6.75227 30 6.75227C29.0874 6.75227 28.2038 7.07312 27.5038 7.65869C26.8224 8.22872 26.3572 9.01429 26.1843 9.88422ZM19.7086 15.6758C19.7498 15.7391 19.8223 15.7733 19.8972 15.763C19.9793 15.7518 20.0548 15.7034 20.0915 15.6292C21.1704 13.4485 22.9255 11.6745 25.0953 10.5721C25.1441 10.5473 25.176 10.4976 25.1832 10.4432C25.1899 10.392 25.1665 10.3425 25.1235 10.3139C24.3878 9.82503 23.5067 9.60061 22.6252 9.67909C21.7161 9.76002 20.8644 10.158 20.219 10.8034C19.5736 11.4489 19.1757 12.3006 19.0948 13.2098C19.0175 14.0784 19.2344 14.9466 19.7086 15.6758ZM19.2496 24.39C19.3248 24.406 19.4015 24.3784 19.448 24.3172C19.4987 24.2503 19.5183 24.1616 19.4917 24.082C18.734 21.8118 18.7341 19.3568 19.4919 17.0866C19.5184 17.0071 19.4988 16.9185 19.4481 16.8517C19.4017 16.7906 19.3252 16.763 19.2501 16.779C18.4 16.9595 17.6335 17.4198 17.0743 18.0881C16.4887 18.7881 16.1678 19.6717 16.1677 20.5844C16.1677 21.4971 16.4885 22.3807 17.0741 23.0808C17.6332 23.7491 18.3996 24.2095 19.2496 24.39ZM20.2189 30.3651C20.8652 31.009 21.7168 31.4059 22.6254 31.4868C23.5064 31.5653 24.3871 31.3419 25.1234 30.8547C25.1665 30.8262 25.1899 30.7767 25.1832 30.7255C25.1761 30.6713 25.1443 30.6218 25.0956 30.5971C22.9256 29.4948 21.1704 27.7206 20.0915 25.5398C20.0548 25.4656 19.9793 25.4173 19.8973 25.4061C19.8222 25.3958 19.7496 25.4301 19.7085 25.4937C19.2363 26.2233 19.0206 27.0908 19.0979 27.9588C19.1788 28.8673 19.5754 29.7187 20.2189 30.3651ZM18.0121 48.1491C17.7997 48.9453 18.5874 49.6423 19.3518 49.3346L21.011 48.6666C21.302 48.5494 21.5211 48.3025 21.6029 47.9997L25.6658 32.957C25.7046 32.8135 25.6864 32.6613 25.624 32.5264C25.4598 32.171 25.0223 31.9968 24.6572 32.1381C24.1722 32.3259 23.6585 32.4284 23.1393 32.4413C22.6186 32.4542 22.1184 32.7577 21.9842 33.2609L18.0121 48.1491ZM29.3545 36.4947C29.5167 35.8865 29.076 35.2856 28.4785 35.0874C28.274 35.0196 28.0746 34.9382 27.8814 34.8438C27.1699 34.496 26.1522 34.7533 25.9457 35.5179L22.5411 48.1234C22.4587 48.4284 22.5252 48.7543 22.7205 49.0025L23.9459 50.56C24.4554 51.2076 25.4856 50.9956 25.698 50.1995L29.3545 36.4947ZM38.7307 33.233C38.5819 32.6753 37.9908 32.3701 37.4161 32.4231C37.1139 32.451 36.8088 32.4489 36.5054 32.4164C35.9095 32.3527 35.3325 32.173 34.8067 31.8881C34.7238 31.8432 34.6196 31.8854 34.5931 31.9759C34.5698 32.0559 34.5449 32.1351 34.5163 32.2127C34.5111 32.2267 34.524 32.2408 34.5383 32.2367C34.5479 32.234 34.5579 32.2396 34.5606 32.2493L35.2313 34.6351C35.3014 34.8844 35.1561 35.1433 34.9067 35.2133C34.6575 35.2833 34.3987 35.138 34.3286 34.8888L34.2736 34.6931C34.1215 34.1521 33.3782 34.0059 32.9329 34.3488C32.6498 34.5668 32.343 34.753 32.0182 34.9037C31.5022 35.1431 31.1544 35.6958 31.301 36.2454L35.024 50.1995C35.2364 50.9956 36.2666 51.2076 36.7761 50.56L37.905 49.1251C38.1026 48.874 38.1683 48.5436 38.0818 48.236L36.4345 42.3783C36.3644 42.129 36.5097 41.8701 36.759 41.8C37.0082 41.73 37.267 41.8752 37.3371 42.1245L38.9755 47.9509C39.0594 48.2493 39.277 48.492 39.5647 48.6078L41.3701 49.3346C42.1345 49.6424 42.9222 48.9454 42.7098 48.1492L38.7307 33.233Z" fill="#D13A1F"/>
</svg>
