<svg width="32" height="32" viewBox="0 0 32 32" fill="none" xmlns="http://www.w3.org/2000/svg">
<path d="M4.05 15.0002H25.64L20.34 9.71019C20.1517 9.52188 20.0459 9.26649 20.0459 9.00019C20.0459 8.73388 20.1517 8.47849 20.34 8.29019C20.5283 8.10188 20.7837 7.99609 21.05 7.99609C21.3163 7.99609 21.5717 8.10188 21.76 8.29019L28.76 15.2902C28.8407 15.378 28.9051 15.4797 28.95 15.5902C28.9556 15.6233 28.9556 15.6571 28.95 15.6902C28.9773 15.771 28.9941 15.8551 29 15.9402V16.0002C28.9995 16.1064 28.9792 16.2115 28.94 16.3102C28.8985 16.4224 28.8337 16.5247 28.75 16.6102L21.75 23.6102C21.657 23.7039 21.5464 23.7783 21.4246 23.8291C21.3027 23.8798 21.172 23.906 21.04 23.906C20.908 23.906 20.7773 23.8798 20.6554 23.8291C20.5336 23.7783 20.423 23.7039 20.33 23.6102C20.2363 23.5172 20.1619 23.4066 20.1111 23.2848C20.0603 23.1629 20.0342 23.0322 20.0342 22.9002C20.0342 22.7682 20.0603 22.6375 20.1111 22.5156C20.1619 22.3937 20.2363 22.2831 20.33 22.1902L25.64 17.0002H4.05C3.78478 17.0002 3.53043 16.8948 3.34289 16.7073C3.15536 16.5198 3.05 16.2654 3.05 16.0002C3.05 15.735 3.15536 15.4806 3.34289 15.2931C3.53043 15.1055 3.78478 15.0002 4.05 15.0002Z" fill="#282828"/>
</svg>
