<svg width="58" height="58" viewBox="0 0 58 58" fill="none" xmlns="http://www.w3.org/2000/svg">
<path d="M28.3782 45.2424C30.169 45.2424 31.91 44.9479 33.5266 44.4082L44.0223 19.1865H13.9529L17.5841 27.9209L28.428 27.7737L21.6132 43.7948C23.6775 44.7271 25.9657 45.2424 28.3782 45.2424Z" fill="white"/>
<path d="M50.8371 33.8088L58 29.0491L50.8371 24.2893C48.9966 16.0702 42.5549 9.54399 34.2976 7.48308L29.1741 0L24.175 7.2868C15.4451 9.10237 8.53087 15.923 6.74014 24.5347L0 29.0491L6.76501 33.5634C8.58062 42.2242 15.5197 49.0694 24.2993 50.8359L29.199 58L34.223 50.6396C42.5051 48.6278 48.9966 42.077 50.8371 33.8088ZM28.8259 47.5973C18.4545 47.5973 10.0232 39.28 10.0232 29.0491C10.0232 18.8181 18.4545 10.5008 28.8259 10.5008C39.1973 10.5008 47.6286 18.8181 47.6286 29.0491C47.6286 39.28 39.1973 47.5973 28.8259 47.5973Z" fill="white"/>
<path d="M4.82497 23.3574L2.61142 24.8295C3.35756 19.9471 5.47163 15.5063 8.58054 11.8997L7.51107 7.97419L11.4656 9.02918C15.1466 5.83967 19.7478 3.65608 24.7967 2.89551L23.3044 5.0791C14.1269 7.16454 6.91416 14.3041 4.82497 23.3574Z" fill="white"/>
<path d="M52.7769 23.0875C50.6629 14.4513 43.8978 7.60614 35.2426 5.29988L33.7006 3.06722C38.4262 3.92594 42.704 6.03592 46.186 9.02915L50.0411 7.99869L48.9965 11.8016C52.0805 15.3591 54.1946 19.7508 54.9905 24.5596L52.7769 23.0875Z" fill="white"/>
<path d="M54.9905 33.0241L52.752 34.4962C50.638 43.1079 43.8481 49.9285 35.1929 52.2102L33.6508 54.4674C38.1774 53.6332 42.3309 51.6705 45.7383 48.8735L50.1654 50.0512L48.9716 45.7331C52.0556 42.1755 54.1946 37.8084 54.9905 33.0241Z" fill="white"/>
<path d="M4.82497 34.2263C6.93903 43.2551 14.1517 50.3701 23.3044 52.431L24.8215 54.6146C19.9219 53.8786 15.445 51.8177 11.8138 48.7999L7.08826 50.0512L8.3567 45.3651C5.37214 41.8321 3.35756 37.4894 2.61142 32.7542L4.82497 34.2263Z" fill="white"/>
</svg>
