<svg width="54" height="32" viewBox="0 0 54 32" fill="none" xmlns="http://www.w3.org/2000/svg">
<path d="M53.5484 16C53.5484 24.7795 46.4099 32 37.5484 32C28.7689 32 21.5484 24.7795 21.5484 16C21.5484 7.22051 28.6869 0 37.4664 0C46.4099 0 53.5484 7.22051 53.5484 16Z" fill="#F9B50B"/>
<path d="M32.1331 16.0821C32.1331 14.9333 31.969 13.7846 31.8049 12.7179H21.9587C22.0408 12.1436 22.2049 11.6513 22.369 10.9949H31.1485C30.9844 10.4205 30.7382 9.84615 30.4921 9.2718H23.0254C23.2716 8.69744 23.5998 8.20513 23.928 7.54872H29.5895C29.2613 6.97436 28.851 6.4 28.3587 5.82564H25.2408C25.7331 5.25128 26.2254 4.75897 26.8818 4.18462C24.0921 1.55897 20.3177 0 16.1331 0C7.43566 0.246154 0.215149 7.22051 0.215149 16C0.215149 24.7795 7.35361 32 16.2152 32C20.3998 32 24.0921 30.359 26.9639 27.8154C27.5382 27.3231 28.0305 26.7487 28.6049 26.0923H25.3228C24.9126 25.6 24.5023 25.0256 24.1741 24.4513H29.7536C30.0818 23.959 30.41 23.3846 30.6562 22.7282H23.1895C22.9434 22.2359 22.6972 21.6615 22.5331 21.0051H31.3126C31.8049 19.5282 32.1331 17.8872 32.1331 16.0821Z" fill="#C8191C"/>
<path d="M21.8768 20.1024L22.1229 18.6255C22.0409 18.6255 21.8768 18.7075 21.7127 18.7075C21.1383 18.7075 21.0562 18.3793 21.1383 18.2152L21.6306 15.2614H22.5332L22.7793 13.6204H21.9588L22.1229 12.6357H20.3998C20.3998 12.6357 19.4152 18.2152 19.4152 18.8716C19.4152 19.8563 19.9896 20.3486 20.8101 20.3486C21.3024 20.3486 21.7127 20.1845 21.8768 20.1024Z" fill="white"/>
<path d="M22.451 17.3942C22.451 19.7737 24.0921 20.348 25.4049 20.348C26.6357 20.348 27.21 20.1019 27.21 20.1019L27.5382 18.4608C27.5382 18.4608 26.6357 18.8711 25.7331 18.8711C23.8459 18.8711 24.1741 17.4762 24.1741 17.4762H27.6203C27.6203 17.4762 27.8664 16.4096 27.8664 15.9172C27.8664 14.8506 27.2921 13.4557 25.4049 13.4557C23.7639 13.3737 22.451 15.2608 22.451 17.3942ZM25.4049 14.9326C26.3075 14.9326 26.1434 15.9993 26.1434 16.0813H24.2562C24.3382 15.9993 24.5023 14.9326 25.4049 14.9326Z" fill="white"/>
<path d="M36.1536 20.1026L36.4818 18.2154C36.4818 18.2154 35.6613 18.6257 35.0049 18.6257C33.8562 18.6257 33.2818 17.7231 33.2818 16.6565C33.2818 14.6052 34.2664 13.5385 35.4972 13.5385C36.3177 13.5385 37.0562 14.0308 37.0562 14.0308L37.3023 12.2257C37.3023 12.2257 36.3177 11.8154 35.3331 11.8154C33.3639 11.8154 31.4767 13.5385 31.4767 16.7385C31.4767 18.8718 32.4613 20.2667 34.5126 20.2667C35.251 20.3488 36.1536 20.1026 36.1536 20.1026Z" fill="white"/>
<path d="M12.6048 13.374C11.4561 13.374 10.5536 13.7022 10.5536 13.7022L10.3074 15.1792C10.3074 15.1792 11.0459 14.8509 12.1946 14.8509C12.7689 14.8509 13.2613 14.933 13.2613 15.4253C13.2613 15.7535 13.1792 15.8356 13.1792 15.8356H12.4407C10.9638 15.8356 9.40485 16.4099 9.40485 18.3792C9.40485 19.9381 10.3895 20.2663 11.0459 20.2663C12.1946 20.2663 12.7689 19.5279 12.851 19.5279L12.7689 20.1843H14.1638L14.8202 15.5074C14.8202 13.4561 13.1792 13.374 12.6048 13.374ZM12.9331 17.1484C12.9331 17.3945 12.7689 18.7894 11.7843 18.7894C11.292 18.7894 11.1279 18.3792 11.1279 18.133C11.1279 17.7227 11.3741 17.1484 12.6869 17.1484C12.851 17.1484 12.9331 17.1484 12.9331 17.1484Z" fill="white"/>
<path d="M16.4614 20.2664C16.8716 20.2664 19.005 20.3484 19.005 18.051C19.005 15.9176 16.9537 16.3279 16.9537 15.5074C16.9537 15.0971 17.2819 14.933 17.8562 14.933C18.1024 14.933 19.005 15.0151 19.005 15.0151L19.2511 13.4561C19.2511 13.4561 18.6768 13.292 17.6101 13.292C16.3793 13.292 15.0665 13.7843 15.0665 15.5074C15.0665 17.4766 17.1998 17.3125 17.1998 18.051C17.1998 18.5433 16.6255 18.6253 16.2152 18.6253C15.4768 18.6253 14.6562 18.3792 14.6562 18.3792L14.4101 19.9381C14.5742 20.1022 15.0665 20.2664 16.4614 20.2664Z" fill="white"/>
<path d="M50.2664 12.0615L49.9382 14.359C49.9382 14.359 49.2818 13.5384 48.2972 13.5384C46.7382 13.5384 45.4254 15.4256 45.4254 17.641C45.4254 19.0359 46.0818 20.4308 47.5588 20.4308C48.5434 20.4308 49.1998 19.7743 49.1998 19.7743L49.1177 20.3487H50.8408L52.0716 12.2256L50.2664 12.0615ZM49.4459 16.4923C49.4459 17.3949 49.0357 18.6256 48.0511 18.6256C47.4767 18.6256 47.1485 18.1333 47.1485 17.2308C47.1485 15.8359 47.7229 15.0154 48.5434 15.0154C49.1177 15.0974 49.4459 15.5077 49.4459 16.4923Z" fill="white"/>
<path d="M3.3331 20.1846L4.31772 14.1128L4.48182 20.1846H5.63054L7.84592 14.1128L6.94336 20.1846H8.74849L10.1434 12.0615H7.35362L5.63054 17.0667L5.54849 12.0615H3.08695L1.69208 20.1846H3.3331Z" fill="white"/>
<path d="M29.5894 20.1842C30.0818 17.3945 30.1638 15.0971 31.3946 15.5073C31.5587 14.4406 31.8048 13.9483 31.9689 13.5381H31.6407C30.9023 13.5381 30.2459 14.5227 30.2459 14.5227L30.41 13.6201H28.7689L27.7023 20.1842H29.5894Z" fill="white"/>
<path d="M40.092 13.374C38.9432 13.374 38.0407 13.7022 38.0407 13.7022L37.7945 15.1792C37.7945 15.1792 38.533 14.8509 39.6817 14.8509C40.2561 14.8509 40.7484 14.933 40.7484 15.4253C40.7484 15.7535 40.6663 15.8356 40.6663 15.8356H39.9279C38.4509 15.8356 36.892 16.4099 36.892 18.3792C36.892 19.9381 37.8766 20.2663 38.533 20.2663C39.6817 20.2663 40.2561 19.5279 40.3381 19.5279L40.2561 20.1843H41.815L42.4715 15.5074C42.4715 13.4561 40.6663 13.374 40.092 13.374ZM40.5022 17.1484C40.5022 17.3945 40.3381 18.7894 39.3535 18.7894C38.8612 18.7894 38.6971 18.3792 38.6971 18.133C38.6971 17.7227 38.9432 17.1484 40.2561 17.1484C40.4202 17.1484 40.4202 17.1484 40.5022 17.1484Z" fill="white"/>
<path d="M43.7844 20.1842C44.2767 17.3945 44.3588 15.0971 45.5895 15.5073C45.7536 14.4406 45.9998 13.9483 46.1639 13.5381H45.8357C45.0972 13.5381 44.4408 14.5227 44.4408 14.5227L44.6049 13.6201H42.9639L41.8972 20.1842H43.7844Z" fill="white"/>
</svg>
