<svg width="111" height="32" viewBox="0 0 111 32" fill="none" xmlns="http://www.w3.org/2000/svg">
<path d="M99.6451 0H78.3806C79.6193 7.01935 86.4322 13.6258 93.8645 13.6258H110.794C111 13.0065 111 11.9742 111 11.3548C111 5.16129 105.839 0 99.6451 0Z" fill="url(#paint0_linear_79_11619)"/>
<path d="M80.2388 14.8652V32.0007H90.5613V22.9168H99.6452C104.6 22.9168 108.936 19.4072 110.381 14.8652H80.2388Z" fill="#4FAD50"/>
<path d="M43.9033 0V31.7936H52.9872C52.9872 31.7936 55.2582 31.7936 56.4969 29.5226C62.6904 17.3419 64.5485 13.6258 64.5485 13.6258H65.7872V31.7936H76.1098V0H67.0259C67.0259 0 64.7549 0.206464 63.5162 2.27098C58.3549 12.8 55.4646 18.1677 55.4646 18.1677H54.2259V0H43.9033Z" fill="#4FAD50"/>
<path d="M0.548462 31.9996V0.206055H10.871C10.871 0.206055 13.7614 0.206048 15.413 4.74798C19.542 16.7222 19.955 18.3738 19.955 18.3738C19.955 18.3738 20.7807 15.4835 24.4969 4.74798C26.1485 0.206048 29.0388 0.206055 29.0388 0.206055H39.3614V31.9996H29.0388V14.8641H27.8001L22.0195 31.9996H17.4775L11.6969 14.8641H10.4582V31.9996H0.548462Z" fill="#4FAD50"/>
<defs>
<linearGradient id="paint0_linear_79_11619" x1="78.3439" y1="6.91056" x2="110.927" y2="6.91056" gradientUnits="userSpaceOnUse">
<stop stop-color="#27B1E6"/>
<stop offset="1" stop-color="#148ACA"/>
</linearGradient>
</defs>
</svg>
