<svg width="106" height="32" viewBox="0 0 106 32" fill="none" xmlns="http://www.w3.org/2000/svg">
<path d="M98.2057 0.457031H91.6533C89.6723 0.457031 88.1485 1.06656 87.2342 3.04751L74.739 31.5427H83.5771C83.5771 31.5427 85.1009 27.7332 85.4057 26.8189C86.32 26.8189 95.0057 26.8189 96.2247 26.8189C96.5295 27.8856 97.2914 31.3904 97.2914 31.3904H105.215L98.2057 0.457031ZM87.8438 20.4189C88.6057 18.5904 91.1962 11.7332 91.1962 11.7332C91.1962 11.8856 91.9581 9.90465 92.2628 8.83798L92.8723 11.5808C92.8723 11.5808 94.5485 19.0475 94.8533 20.5713H87.8438V20.4189Z" fill="#3362AB"/>
<path d="M75.3486 21.3333C75.3486 27.7333 69.5581 32 60.5677 32C56.7581 32 53.101 31.2381 51.1201 30.3238L52.3391 23.3143L53.4058 23.7714C56.1486 24.9905 57.9772 25.4476 61.3296 25.4476C63.7677 25.4476 66.3582 24.5333 66.3582 22.4C66.3582 21.0286 65.2915 20.1143 61.9391 18.5905C58.7391 17.0667 54.4724 14.6286 54.4724 10.2095C54.4724 4.11429 60.4153 0 68.7962 0C71.9962 0 74.7391 0.609524 76.4153 1.37143L75.1962 8.07619L74.5867 7.46667C73.0629 6.85714 71.082 6.24762 68.1867 6.24762C64.9867 6.4 63.4629 7.77143 63.4629 8.99048C63.4629 10.3619 65.2915 11.4286 68.1867 12.8C73.0629 15.0857 75.3486 17.6762 75.3486 21.3333Z" fill="#3362AB"/>
<path d="M0.986633 0.760891L1.13901 0.151367H14.2438C16.0723 0.151367 17.4438 0.760891 17.9009 2.74184L20.7962 16.4561C17.9009 9.14184 11.1962 3.19899 0.986633 0.760891Z" fill="#F9B50B"/>
<path d="M39.2343 0.459022L25.9771 31.3924H16.9867L9.36761 5.48759C14.8533 8.99235 19.4248 14.4781 21.1009 18.2876L22.0152 21.4876L30.2438 0.306641H39.2343V0.459022Z" fill="#3362AB"/>
<path d="M42.739 0.306641H51.1199L45.7866 31.3924H37.4056L42.739 0.306641Z" fill="#3362AB"/>
</svg>
