<svg width="32" height="32" viewBox="0 0 32 32" fill="none" xmlns="http://www.w3.org/2000/svg">
<rect width="32" height="32" rx="16" fill="#4A639C"/>
<path d="M16.786 21.6004C10.7727 21.6004 7.34286 17.3962 7.19995 10.4004H10.2121C10.311 15.5351 12.5316 17.7101 14.2905 18.1585V10.4004H17.1267V14.8288C18.8637 14.6382 20.6885 12.6202 21.3041 10.4004H24.1404C23.9084 11.5517 23.446 12.6417 22.782 13.6024C22.1181 14.5631 21.2669 15.3737 20.2818 15.9836C21.3814 16.5408 22.3527 17.3296 23.1316 18.2978C23.9104 19.266 24.479 20.3916 24.7999 21.6004H21.6779C21.3898 20.5505 20.8043 19.6106 19.9947 18.8987C19.1851 18.1867 18.1874 17.7342 17.1267 17.598V21.6004H16.786Z" fill="white"/>
</svg>
