<svg width="32" height="32" viewBox="0 0 32 32" fill="none" xmlns="http://www.w3.org/2000/svg">
<rect width="32" height="32" rx="16" fill="#CF2200"/>
<path fill-rule="evenodd" clip-rule="evenodd" d="M9.00994 21.6455C8.69613 21.5526 8.4098 21.3874 8.17512 21.1639C7.94043 20.9403 7.76427 20.665 7.66151 20.361C7.07429 18.7899 6.9003 12.2295 8.03124 10.9345C8.40764 10.5132 8.93906 10.2538 9.51017 10.2126C12.5441 9.89414 21.9179 9.93661 22.9945 10.3188C23.2973 10.4147 23.5739 10.5762 23.8037 10.7913C24.0335 11.0064 24.2104 11.2695 24.3212 11.5608C24.9628 13.1849 24.9845 19.0871 24.2342 20.6476C24.0352 21.0538 23.7019 21.3828 23.2881 21.5818C22.1572 22.1338 10.5106 22.1231 9.00994 21.6455ZM13.8273 18.567L19.2646 15.807L13.8273 13.0257V18.567Z" fill="white"/>
</svg>
