<svg width="38" height="36" viewBox="0 0 38 36" fill="none" xmlns="http://www.w3.org/2000/svg">
<path d="M19 3C15.6418 3.00357 12.4222 4.269 10.0475 6.51866C7.67288 8.76833 6.33715 11.8185 6.33337 15C6.33337 19.8825 10.0748 23.937 14.0379 28.2285C15.2919 29.5875 16.5902 30.993 17.746 32.415C17.894 32.5968 18.0839 32.744 18.3013 32.8453C18.5187 32.9466 18.7578 32.9992 19 32.9992C19.2423 32.9992 19.4813 32.9466 19.6988 32.8453C19.9162 32.744 20.1061 32.5968 20.254 32.415C21.4099 30.993 22.7082 29.5875 23.9622 28.2285C27.9253 23.937 31.6667 19.8825 31.6667 15C31.6629 11.8185 30.3272 8.76833 27.9526 6.51866C25.5779 4.269 22.3583 3.00357 19 3ZM19 19.5C18.0606 19.5 17.1422 19.2361 16.3611 18.7416C15.5799 18.2471 14.9711 17.5443 14.6116 16.7221C14.2521 15.8998 14.158 14.995 14.3413 14.1221C14.5246 13.2492 14.977 12.4474 15.6413 11.818C16.3056 11.1887 17.152 10.7601 18.0734 10.5865C18.9948 10.4128 19.9498 10.5019 20.8178 10.8425C21.6857 11.1831 22.4276 11.7599 22.9495 12.4999C23.4715 13.24 23.75 14.11 23.75 15C23.75 16.1935 23.2496 17.3381 22.3588 18.182C21.468 19.0259 20.2598 19.5 19 19.5Z" fill="#D13A1F"/>
</svg>
