<svg width="20" height="20" viewBox="0 0 20 20" fill="none" xmlns="http://www.w3.org/2000/svg">
<path d="M10 0.625C4.8225 0.625 0.625 4.8225 0.625 10C0.625 15.1775 4.8225 19.375 10 19.375C15.1775 19.375 19.375 15.1775 19.375 10C19.375 4.8225 15.1775 0.625 10 0.625ZM15 10.625H10.625V15C10.625 15.1658 10.5592 15.3247 10.4419 15.4419C10.3247 15.5592 10.1658 15.625 10 15.625C9.83424 15.625 9.67527 15.5592 9.55806 15.4419C9.44085 15.3247 9.375 15.1658 9.375 15V10.625H5C4.83424 10.625 4.67527 10.5592 4.55806 10.4419C4.44085 10.3247 4.375 10.1658 4.375 10C4.375 9.83424 4.44085 9.67527 4.55806 9.55806C4.67527 9.44085 4.83424 9.375 5 9.375H9.375V5C9.375 4.83424 9.44085 4.67527 9.55806 4.55806C9.67527 4.44085 9.83424 4.375 10 4.375C10.1658 4.375 10.3247 4.44085 10.4419 4.55806C10.5592 4.67527 10.625 4.83424 10.625 5V9.375H15C15.1658 9.375 15.3247 9.44085 15.4419 9.55806C15.5592 9.67527 15.625 9.83424 15.625 10C15.625 10.1658 15.5592 10.3247 15.4419 10.4419C15.3247 10.5592 15.1658 10.625 15 10.625Z" fill="#248C73"/>
</svg>
