<svg width="58" height="58" viewBox="0 0 58 58" fill="none" xmlns="http://www.w3.org/2000/svg">
<path d="M28.3782 45.242C30.169 45.242 31.91 44.9476 33.5266 44.4078L44.0223 19.1862H13.9529L17.5841 27.9205L28.428 27.7733L21.6132 43.7945C23.6775 44.7268 25.9657 45.242 28.3782 45.242Z" fill="#141414"/>
<path d="M50.8371 33.8088L58 29.0491L50.8371 24.2893C48.9966 16.0702 42.5549 9.54399 34.2976 7.48308L29.1741 0L24.175 7.2868C15.4451 9.10237 8.53087 15.923 6.74014 24.5347L0 29.0491L6.76501 33.5634C8.58062 42.2242 15.5197 49.0694 24.2993 50.8359L29.199 58L34.223 50.6396C42.5051 48.6278 48.9966 42.077 50.8371 33.8088ZM28.8259 47.5973C18.4545 47.5973 10.0232 39.28 10.0232 29.0491C10.0232 18.8181 18.4545 10.5008 28.8259 10.5008C39.1973 10.5008 47.6286 18.8181 47.6286 29.0491C47.6286 39.28 39.1973 47.5973 28.8259 47.5973Z" fill="#D13A1F"/>
<path d="M4.82497 23.3571L2.61142 24.8292C3.35756 19.9468 5.47163 15.506 8.58054 11.8994L7.51107 7.97387L11.4656 9.02886C15.1466 5.83935 19.7478 3.65576 24.7967 2.89519L23.3044 5.07878C14.1269 7.16422 6.91416 14.3038 4.82497 23.3571Z" fill="#141414"/>
<path d="M52.7769 23.0872C50.6629 14.451 43.8978 7.60582 35.2426 5.29956L33.7006 3.0669C38.4262 3.92562 42.704 6.0356 46.186 9.02883L50.0411 7.99837L48.9965 11.8013C52.0805 15.3588 54.1946 19.7505 54.9905 24.5593L52.7769 23.0872Z" fill="#141414"/>
<path d="M54.9905 33.0238L52.752 34.4959C50.638 43.1075 43.8481 49.9282 35.1929 52.2099L33.6508 54.4671C38.1774 53.6329 42.3309 51.6701 45.7383 48.8732L50.1654 50.0509L48.9716 45.7327C52.0556 42.1752 54.1946 37.808 54.9905 33.0238Z" fill="#141414"/>
<path d="M4.82497 34.226C6.93903 43.2547 14.1517 50.3698 23.3044 52.4307L24.8215 54.6143C19.9219 53.8783 15.445 51.8174 11.8138 48.7996L7.08826 50.0509L8.3567 45.3647C5.37214 41.8317 3.35756 37.4891 2.61142 32.7539L4.82497 34.226Z" fill="#141414"/>
</svg>
