<svg width="208" height="36" viewBox="0 0 208 36" fill="none" xmlns="http://www.w3.org/2000/svg">
<path d="M17.1558 28.0812C18.2383 28.0812 19.2908 27.8985 20.2682 27.5635L26.6132 11.9087H8.43505L10.6303 17.33L17.1858 17.2386L13.0661 27.1828C14.314 27.7614 15.6973 28.0812 17.1558 28.0812Z" fill="#141414"/>
<path d="M30.733 20.9848L35.0633 18.0305L30.733 15.0761C29.6204 9.97462 25.7261 5.92386 20.7343 4.64467L17.6369 0L14.6147 4.52284C9.33718 5.64975 5.15725 9.88325 4.07468 15.2284L0 18.0305L4.08972 20.8325C5.18732 26.2081 9.38229 30.4569 14.6899 31.5533L17.6519 36L20.6891 31.4315C25.696 30.1827 29.6204 26.1167 30.733 20.9848ZM17.4264 29.5431C11.1565 29.5431 6.05939 24.3807 6.05939 18.0305C6.05939 11.6802 11.1565 6.51777 17.4264 6.51777C23.6963 6.51777 28.7934 11.6802 28.7934 18.0305C28.7934 24.3807 23.6963 29.5431 17.4264 29.5431Z" fill="#D13A1F"/>
<path d="M2.91688 14.4975L1.5787 15.4112C2.02978 12.3808 3.30781 9.62442 5.18728 7.38584L4.54074 4.9493L6.93142 5.60412C9.1567 3.62442 11.9383 2.26909 14.9906 1.79701L14.0884 3.15234C8.54024 4.44676 4.17988 8.87823 2.91688 14.4975Z" fill="#D13A1F"/>
<path d="M31.9057 14.33C30.6277 8.96958 26.538 4.72085 21.3056 3.28938L20.3733 1.90359C23.2301 2.43659 25.8163 3.74623 27.9213 5.6041L30.2518 4.96451L29.6203 7.32491C31.4847 9.53304 32.7628 12.2589 33.2439 15.2437L31.9057 14.33Z" fill="#D13A1F"/>
<path d="M33.2439 20.4975L31.8907 21.4112C30.6127 26.7564 26.5079 30.9899 21.2755 32.4061L20.3433 33.8072C23.0798 33.2894 25.5907 32.0711 27.6506 30.3351L30.327 31.066L29.6053 28.3858C31.4697 26.1777 32.7628 23.4671 33.2439 20.4975Z" fill="#D13A1F"/>
<path d="M2.91688 21.2437C4.19492 26.8478 8.55527 31.264 14.0884 32.5432L15.0056 33.8985C12.0436 33.4417 9.33714 32.1625 7.14192 30.2894L4.28513 31.066L5.05195 28.1574C3.24767 25.9645 2.02978 23.2691 1.5787 20.33L2.91688 21.2437Z" fill="#D13A1F"/>
<path d="M47.3542 14.7463V12.9774H50.2258C50.5703 12.9774 50.8613 12.9184 51.0987 12.8005C51.3438 12.6826 51.5314 12.5135 51.6615 12.2934C51.7994 12.0654 51.8683 11.7981 51.8683 11.4914C51.8683 11.1848 51.7994 10.9214 51.6615 10.7013C51.5314 10.4812 51.3438 10.3121 51.0987 10.1942C50.8613 10.0763 50.5703 10.0173 50.2258 10.0173H47.3657V8.26014H50.3406C51.114 8.26014 51.7764 8.39379 52.3277 8.6611C52.8791 8.92841 53.3041 9.30579 53.6027 9.79324C53.909 10.2728 54.0622 10.8389 54.0622 11.4914C54.0622 12.144 53.909 12.714 53.6027 13.2014C53.3041 13.6889 52.8791 14.0702 52.3277 14.3454C51.7764 14.6127 51.114 14.7463 50.3406 14.7463H47.3542ZM43.9198 14.7463C43.1617 14.7463 42.5032 14.6127 41.9442 14.3454C41.3928 14.0702 40.964 13.6889 40.6577 13.2014C40.3591 12.714 40.2097 12.144 40.2097 11.4914C40.2097 10.8389 40.3591 10.2728 40.6577 9.79324C40.964 9.30579 41.3928 8.92841 41.9442 8.6611C42.5032 8.39379 43.1617 8.26014 43.9198 8.26014H46.8947V10.0173H44.0347C43.6977 10.0173 43.4067 10.0763 43.1617 10.1942C42.9167 10.3121 42.7291 10.4812 42.5989 10.7013C42.4687 10.9214 42.4036 11.1848 42.4036 11.4914C42.4036 11.7981 42.4687 12.0654 42.5989 12.2934C42.7291 12.5135 42.9167 12.6826 43.1617 12.8005C43.4067 12.9184 43.6977 12.9774 44.0347 12.9774H46.9062V14.7463H43.9198ZM46.0448 16.4092V7.02186H48.2157V16.4092H46.0448Z" fill="#141414"/>
<path d="M56.254 14.3572V12.5646H62.2038V14.3572H56.254ZM60.6877 7.2931L64.6619 16.1379H62.3532L58.9418 8.22476H59.608L56.208 16.1379H53.8993L57.8735 7.2931H60.6877Z" fill="#141414"/>
<path d="M66.9288 10.7013H70.7882C71.4927 10.7013 72.0747 10.8153 72.5341 11.0433C73.0012 11.2713 73.3496 11.5897 73.5794 11.9986C73.8091 12.3995 73.924 12.8752 73.924 13.4255C73.924 13.968 73.7976 14.4437 73.5449 14.8525C73.2999 15.2613 72.94 15.5797 72.4652 15.8077C71.9981 16.0279 71.4391 16.1379 70.7882 16.1379H65.2748L65.941 11.5268L65.2748 7.2931H73.2463V9.0149H66.6187L67.4457 7.96531L68.0085 11.4914L67.3998 15.5247L66.5728 14.4869H70.5125C70.9031 14.4869 71.2094 14.3886 71.4314 14.1921C71.6535 13.9955 71.7645 13.7203 71.7645 13.3666C71.7645 13.0206 71.6497 12.7494 71.42 12.5528C71.1979 12.3484 70.8954 12.2462 70.5125 12.2462H66.9288V10.7013Z" fill="#141414"/>
<path d="M79.8851 7.2931C80.5896 7.2931 81.1946 7.4189 81.7 7.67048C82.213 7.91421 82.6036 8.26014 82.8716 8.70827C83.1472 9.15641 83.2851 9.67924 83.2851 10.2768C83.2851 10.8743 83.1472 11.3971 82.8716 11.8452C82.6036 12.2934 82.213 12.6432 81.7 12.8948C81.1946 13.1386 80.5896 13.2604 79.8851 13.2604H76.1176V11.4561H79.7703C80.1838 11.4561 80.5092 11.3539 80.7466 11.1494C80.984 10.9372 81.1027 10.6463 81.1027 10.2768C81.1027 9.90724 80.984 9.62028 80.7466 9.41586C80.5092 9.20359 80.1838 9.09745 79.7703 9.09745H76.3129L77.2892 8.05965V16.1379H75.1183V7.2931H79.8851Z" fill="#141414"/>
<path d="M84.3612 16.1379V7.2931H86.4976V14.9822L85.8659 14.8525L91.0347 7.2931H93.8603V16.1379H91.7354V8.3191L92.3556 8.44883L87.1179 16.1379H84.3612Z" fill="#141414"/>
<path d="M95.5334 16.1379V7.2931H97.6928V14.3572L97.107 13.8972L102.207 7.2931H104.504L97.486 16.1379H95.5334ZM99.6569 11.857L101.219 10.4772L104.619 16.1379H102.161L99.6569 11.857Z" fill="#141414"/>
<path d="M106.966 14.3572V12.5646H112.916V14.3572H106.966ZM111.4 7.2931L115.374 16.1379H113.065L109.654 8.22476H110.32L106.92 16.1379H104.612L108.586 7.2931H111.4Z" fill="#141414"/>
<path d="M121.082 8.27193H123.253V16.1379H121.082V8.27193ZM117.728 7.2931H126.607V9.26255H117.728V7.2931Z" fill="#141414"/>
<path d="M129.681 16.1379L131.197 13.4373H131.231L134.654 7.2931H136.998L132.024 16.1379H129.681ZM131.174 14.8997L126.878 7.2931H129.267L132.69 13.3901L131.174 14.8997Z" fill="#141414"/>
<path d="M142.622 7.2931C143.327 7.2931 143.931 7.4189 144.437 7.67048C144.95 7.91421 145.34 8.26014 145.608 8.70827C145.884 9.15641 146.022 9.67924 146.022 10.2768C146.022 10.8743 145.884 11.3971 145.608 11.8452C145.34 12.2934 144.95 12.6432 144.437 12.8948C143.931 13.1386 143.327 13.2604 142.622 13.2604H138.855V11.4561H142.507C142.921 11.4561 143.246 11.3539 143.484 11.1494C143.721 10.9372 143.84 10.6463 143.84 10.2768C143.84 9.90724 143.721 9.62028 143.484 9.41586C143.246 9.20359 142.921 9.09745 142.507 9.09745H139.05L140.026 8.05965V16.1379H137.855V7.2931H142.622Z" fill="#141414"/>
<path d="M156.551 12.4821C156.467 13.2447 156.211 13.9169 155.782 14.4987C155.353 15.0726 154.786 15.5208 154.082 15.8431C153.377 16.1654 152.573 16.3266 151.67 16.3266C150.682 16.3266 149.813 16.134 149.062 15.7488C148.319 15.3635 147.741 14.825 147.328 14.1331C146.914 13.4412 146.708 12.6354 146.708 11.7155C146.708 10.7957 146.914 9.98979 147.328 9.29793C147.741 8.60607 148.319 8.06752 149.062 7.68228C149.813 7.29703 150.682 7.10441 151.67 7.10441C152.573 7.10441 153.377 7.26559 154.082 7.58793C154.786 7.91028 155.353 8.35841 155.782 8.93234C156.211 9.50628 156.467 10.1785 156.551 10.949H154.369C154.292 10.548 154.135 10.206 153.898 9.92297C153.668 9.63993 153.362 9.42372 152.979 9.27434C152.604 9.1171 152.167 9.03848 151.67 9.03848C151.095 9.03848 150.601 9.14855 150.188 9.36869C149.774 9.58097 149.457 9.88759 149.235 10.2886C149.012 10.6895 148.901 11.1652 148.901 11.7155C148.901 12.2659 149.012 12.7415 149.235 13.1425C149.457 13.5434 149.774 13.854 150.188 14.0741C150.601 14.2864 151.095 14.3926 151.67 14.3926C152.167 14.3926 152.604 14.3179 152.979 14.1685C153.362 14.0191 153.668 13.8029 153.898 13.5199C154.135 13.2368 154.292 12.8909 154.369 12.4821H156.551Z" fill="#141414"/>
<path d="M158.879 14.3572V12.5646H164.829V14.3572H158.879ZM163.312 7.2931L167.287 16.1379H164.978L161.566 8.22476H162.233L158.833 16.1379H156.524L160.498 7.2931H163.312Z" fill="#141414"/>
<path d="M168.164 16.1379V7.2931H170.3V14.9822L169.668 14.8525L174.837 7.2931H177.663V16.1379H175.538V8.3191L176.158 8.44883L170.92 16.1379H168.164ZM170.036 4.63965H171.759C171.843 4.90696 171.981 5.11138 172.172 5.2529C172.364 5.38655 172.597 5.45338 172.873 5.45338C173.164 5.45338 173.401 5.38655 173.585 5.2529C173.769 5.11138 173.907 4.90696 173.999 4.63965H175.71C175.549 5.3551 175.216 5.87793 174.711 6.20814C174.213 6.53834 173.601 6.70345 172.873 6.70345C172.153 6.70345 171.541 6.53834 171.035 6.20814C170.53 5.87793 170.197 5.3551 170.036 4.63965Z" fill="#141414"/>
<path d="M182.058 8.27193H184.229V16.1379H182.058V8.27193ZM178.704 7.2931H187.583V9.26255H178.704V7.2931Z" fill="#141414"/>
<path d="M192.917 16.3266C191.906 16.3266 191.018 16.134 190.252 15.7488C189.494 15.3635 188.905 14.825 188.483 14.1331C188.062 13.4412 187.852 12.6354 187.852 11.7155C187.852 10.7957 188.062 9.98979 188.483 9.29793C188.905 8.60607 189.494 8.06752 190.252 7.68228C191.018 7.29703 191.906 7.10441 192.917 7.10441C193.928 7.10441 194.812 7.29703 195.57 7.68228C196.336 8.06752 196.93 8.60607 197.351 9.29793C197.78 9.98979 197.994 10.7957 197.994 11.7155C197.994 12.6354 197.78 13.4412 197.351 14.1331C196.93 14.825 196.336 15.3635 195.57 15.7488C194.812 16.134 193.928 16.3266 192.917 16.3266ZM192.917 14.3336C193.514 14.3336 194.027 14.2314 194.456 14.027C194.885 13.8147 195.214 13.512 195.444 13.1189C195.681 12.7258 195.8 12.258 195.8 11.7155C195.8 11.173 195.681 10.7052 195.444 10.3121C195.214 9.91903 194.885 9.62028 194.456 9.41586C194.027 9.20359 193.514 9.09745 192.917 9.09745C192.327 9.09745 191.818 9.20359 191.389 9.41586C190.961 9.62028 190.628 9.91903 190.39 10.3121C190.153 10.7052 190.034 11.173 190.034 11.7155C190.034 12.258 190.153 12.7258 190.39 13.1189C190.628 13.512 190.961 13.8147 191.389 14.027C191.818 14.2314 192.327 14.3336 192.917 14.3336Z" fill="#141414"/>
<path d="M204.876 11.7981L205.06 11.3617C205.733 11.3774 206.285 11.4836 206.714 11.6801C207.15 11.8767 207.472 12.1479 207.678 12.4939C207.893 12.8319 208 13.225 208 13.6732C208 14.1449 207.893 14.5694 207.678 14.9468C207.464 15.3163 207.142 15.6072 206.714 15.8195C206.292 16.0318 205.764 16.1379 205.128 16.1379H198.926L199.592 11.5976L198.926 7.2931H204.91C205.707 7.2931 206.323 7.48572 206.759 7.87097C207.204 8.24834 207.426 8.77117 207.426 9.43945C207.426 9.80896 207.341 10.1628 207.173 10.5008C207.005 10.8389 206.737 11.1259 206.369 11.3617C206.001 11.5897 205.504 11.7352 204.876 11.7981ZM201.062 15.5954L200.235 14.5459H204.612C204.987 14.5459 205.278 14.4554 205.485 14.2746C205.699 14.0859 205.806 13.8226 205.806 13.4845C205.806 13.1464 205.687 12.8791 205.45 12.6826C205.22 12.4781 204.876 12.3759 204.416 12.3759H200.833V10.8192H204.141C204.455 10.8192 204.715 10.7288 204.922 10.548C205.128 10.3593 205.232 10.1038 205.232 9.78145C205.232 9.522 205.144 9.30972 204.968 9.14462C204.792 8.97165 204.535 8.88517 204.198 8.88517H200.247L201.062 7.83559L201.671 11.5976L201.062 15.5954Z" fill="#141414"/>
<path d="M40.7605 27.3103V20.5572C41.0055 20.491 41.286 20.4447 41.602 20.4182C41.9244 20.3851 42.221 20.3685 42.4919 20.3685C43.4398 20.3685 44.1491 20.5572 44.6199 20.9346C45.097 21.3054 45.3356 21.835 45.3356 22.5236C45.3356 23.0466 45.2163 23.467 44.9777 23.7848C44.7456 24.1026 44.4071 24.3343 43.9621 24.48C43.5236 24.619 42.9949 24.6886 42.3758 24.6886H41.5149V27.3103H40.7605ZM41.5149 24.0232H42.3081C42.7659 24.0232 43.1625 23.9834 43.4978 23.904C43.8332 23.8179 44.0911 23.6657 44.2716 23.4472C44.4586 23.2287 44.5521 22.9175 44.5521 22.5137C44.5521 22.123 44.4554 21.8218 44.262 21.6099C44.0685 21.3981 43.817 21.2491 43.5075 21.163C43.198 21.077 42.8691 21.0339 42.5209 21.0339C42.2952 21.0339 42.0985 21.0439 41.9309 21.0637C41.7697 21.077 41.631 21.0902 41.5149 21.1034V24.0232Z" fill="#141414"/>
<path d="M47.9266 27.4196C47.5655 27.4196 47.2431 27.3666 46.9593 27.2607C46.6756 27.1548 46.4531 26.9826 46.2919 26.7443C46.1307 26.5059 46.0501 26.1914 46.0501 25.8008C46.0501 25.4234 46.1404 25.1189 46.321 24.8872C46.5015 24.6488 46.7498 24.4767 47.0657 24.3708C47.3882 24.2648 47.7493 24.2119 48.1491 24.2119C48.3296 24.2119 48.5199 24.2284 48.7198 24.2615C48.9197 24.2946 49.0454 24.3244 49.097 24.3509V24.053C49.097 23.8279 49.068 23.6127 49.0099 23.4074C48.9584 23.1956 48.8487 23.0234 48.6811 22.891C48.5134 22.7586 48.2587 22.6924 47.9169 22.6924C47.5623 22.6924 47.2914 22.7189 47.1044 22.7719C46.9174 22.8248 46.7788 22.8679 46.6885 22.901L46.5918 22.2654C46.7079 22.2124 46.8852 22.1628 47.1238 22.1164C47.3624 22.0701 47.6429 22.0469 47.9653 22.0469C48.4231 22.0469 48.7843 22.1297 49.0486 22.2952C49.3195 22.4607 49.5129 22.6891 49.629 22.9804C49.7515 23.2651 49.8128 23.5928 49.8128 23.9636V27.1912C49.6774 27.2243 49.4355 27.2706 49.0873 27.3302C48.7391 27.3898 48.3522 27.4196 47.9266 27.4196ZM48.033 26.784C48.2587 26.784 48.4618 26.7774 48.6424 26.7641C48.8229 26.7443 48.9745 26.7211 49.097 26.6946V24.9666C49.0325 24.9335 48.9229 24.9004 48.7681 24.8673C48.6134 24.8342 48.4135 24.8177 48.1684 24.8177C47.9621 24.8177 47.7525 24.8408 47.5397 24.8872C47.3269 24.9335 47.1464 25.0262 46.998 25.1652C46.8562 25.3043 46.7852 25.5128 46.7852 25.7909C46.7852 26.1617 46.8981 26.4199 47.1238 26.5655C47.3495 26.7112 47.6526 26.784 48.033 26.784Z" fill="#141414"/>
<path d="M52.5953 27.4295C52.1504 27.4295 51.7828 27.3898 51.4926 27.3103C51.2089 27.2375 51.0187 27.1779 50.922 27.1316L51.0961 26.4761C51.1476 26.5026 51.296 26.5589 51.541 26.645C51.786 26.731 52.131 26.7741 52.576 26.7741C53.008 26.7741 53.3466 26.7012 53.5916 26.5556C53.8366 26.4033 53.9592 26.1815 53.9592 25.8902C53.9592 25.6783 53.914 25.5095 53.8237 25.3837C53.7335 25.2579 53.6174 25.1619 53.4755 25.0957C53.3337 25.0295 53.1854 24.9865 53.0306 24.9666C52.8758 24.9401 52.734 24.9269 52.605 24.9269H51.8602V24.3211H52.5663C52.7275 24.3211 52.9016 24.3012 53.0886 24.2615C53.2756 24.2218 53.4368 24.1457 53.5723 24.0331C53.7077 23.9139 53.7754 23.7451 53.7754 23.5266C53.7754 23.3081 53.7173 23.1393 53.6013 23.0201C53.4852 22.901 53.3304 22.8182 53.137 22.7719C52.95 22.7189 52.7501 22.6924 52.5373 22.6924C52.1826 22.6924 51.8957 22.7288 51.6764 22.8017C51.4572 22.8745 51.3024 22.9341 51.2121 22.9804L51.0574 22.3349C51.167 22.2819 51.3475 22.2223 51.599 22.1561C51.857 22.0899 52.1729 22.0568 52.547 22.0568C52.9597 22.0568 53.3111 22.1098 53.6013 22.2157C53.8979 22.3217 54.1236 22.4805 54.2784 22.6924C54.4331 22.8977 54.5105 23.1625 54.5105 23.4869C54.5105 23.7716 54.4299 24.0066 54.2687 24.192C54.1075 24.3708 53.914 24.4999 53.6883 24.5793C53.9979 24.672 54.2429 24.8276 54.4235 25.0461C54.604 25.2646 54.6943 25.5492 54.6943 25.9001C54.6943 26.1583 54.6459 26.3834 54.5492 26.5754C54.4589 26.7674 54.3235 26.9263 54.1429 27.0521C53.9624 27.1779 53.7399 27.2706 53.4755 27.3302C53.2176 27.3964 52.9242 27.4295 52.5953 27.4295Z" fill="#141414"/>
<path d="M56.0051 29.1476V22.3448C56.134 22.2985 56.2856 22.2554 56.4597 22.2157C56.6402 22.176 56.8466 22.1429 57.0787 22.1164C57.3109 22.0833 57.5688 22.0668 57.8526 22.0668C58.3491 22.0668 58.7843 22.176 59.1584 22.3945C59.5324 22.6063 59.8225 22.9142 60.0289 23.3181C60.2352 23.7153 60.3384 24.192 60.3384 24.7481C60.3384 25.2712 60.2481 25.7346 60.0676 26.1385C59.8935 26.5423 59.6388 26.8601 59.3034 27.0919C58.9681 27.317 58.5586 27.4295 58.075 27.4295C57.7655 27.4295 57.4914 27.3865 57.2528 27.3004C57.0207 27.2077 56.8466 27.1183 56.7305 27.0323V29.1476H56.0051ZM57.988 26.7641C58.2781 26.7641 58.5232 26.7145 58.7231 26.6152C58.9294 26.5092 59.0939 26.3636 59.2164 26.1782C59.3454 25.9928 59.4356 25.781 59.4872 25.5426C59.5453 25.2977 59.5743 25.0361 59.5743 24.7581C59.5743 24.3277 59.5033 23.9603 59.3615 23.6557C59.2196 23.3512 59.0165 23.1194 58.7521 22.9606C58.4942 22.8017 58.1911 22.7222 57.8429 22.7222C57.5591 22.7222 57.3238 22.7388 57.1368 22.7719C56.9562 22.7983 56.8208 22.8248 56.7305 22.8513V26.3371C56.8401 26.4232 57.0078 26.5159 57.2335 26.6152C57.4592 26.7145 57.7107 26.7641 57.988 26.7641Z" fill="#141414"/>
<path d="M63.1818 27.4196C62.8207 27.4196 62.4983 27.3666 62.2145 27.2607C61.9308 27.1548 61.7083 26.9826 61.5471 26.7443C61.3859 26.5059 61.3053 26.1914 61.3053 25.8008C61.3053 25.4234 61.3956 25.1189 61.5761 24.8872C61.7567 24.6488 62.005 24.4767 62.3209 24.3708C62.6433 24.2648 63.0045 24.2119 63.4043 24.2119C63.5848 24.2119 63.775 24.2284 63.9749 24.2615C64.1749 24.2946 64.3006 24.3244 64.3522 24.3509V24.053C64.3522 23.8279 64.3232 23.6127 64.2651 23.4074C64.2135 23.1956 64.1039 23.0234 63.9363 22.891C63.7686 22.7586 63.5139 22.6924 63.1721 22.6924C62.8175 22.6924 62.5466 22.7189 62.3596 22.7719C62.1726 22.8248 62.034 22.8679 61.9437 22.901L61.847 22.2654C61.963 22.2124 62.1404 22.1628 62.379 22.1164C62.6176 22.0701 62.8981 22.0469 63.2205 22.0469C63.6783 22.0469 64.0394 22.1297 64.3038 22.2952C64.5746 22.4607 64.7681 22.6891 64.8842 22.9804C65.0067 23.2651 65.068 23.5928 65.068 23.9636V27.1912C64.9325 27.2243 64.6907 27.2706 64.3425 27.3302C63.9943 27.3898 63.6074 27.4196 63.1818 27.4196ZM63.2882 26.784C63.5139 26.784 63.717 26.7774 63.8976 26.7641C64.0781 26.7443 64.2297 26.7211 64.3522 26.6946V24.9666C64.2877 24.9335 64.1781 24.9004 64.0233 24.8673C63.8685 24.8342 63.6686 24.8177 63.4236 24.8177C63.2173 24.8177 63.0077 24.8408 62.7949 24.8872C62.5821 24.9335 62.4015 25.0262 62.2532 25.1652C62.1114 25.3043 62.0404 25.5128 62.0404 25.7909C62.0404 26.1617 62.1533 26.4199 62.379 26.5655C62.6047 26.7112 62.9077 26.784 63.2882 26.784Z" fill="#141414"/>
<path d="M68.7017 27.4295C68.2374 27.4295 67.8537 27.3401 67.5506 27.1614C67.254 26.976 67.0219 26.731 66.8542 26.4265C66.693 26.1153 66.5769 25.7677 66.506 25.3837C66.4415 24.9931 66.4093 24.5926 66.4093 24.1821C66.4093 23.5465 66.4512 22.9771 66.535 22.4739C66.6253 21.9641 66.7801 21.5239 66.9993 21.1531C67.2186 20.7823 67.5184 20.4844 67.8989 20.2593C68.2858 20.0342 68.7726 19.8819 69.3594 19.8025C69.727 19.7561 69.9882 19.7197 70.1429 19.6932C70.3041 19.6668 70.446 19.637 70.5685 19.6039L70.6556 20.2692C70.5717 20.2957 70.4492 20.3222 70.288 20.3487C70.1268 20.3752 69.8721 20.4083 69.5239 20.448C69.0144 20.5076 68.5985 20.6334 68.2761 20.8254C67.9537 21.0108 67.7086 21.2756 67.541 21.6199C67.3733 21.9641 67.2637 22.3945 67.2121 22.9109C67.4185 22.6792 67.6732 22.507 67.9762 22.3945C68.2793 22.2819 68.5502 22.2257 68.7887 22.2257C69.2853 22.2257 69.6915 22.3316 70.0075 22.5434C70.3299 22.7553 70.5685 23.0566 70.7233 23.4472C70.878 23.8312 70.9554 24.288 70.9554 24.8177C70.9554 25.1288 70.9167 25.44 70.8393 25.7512C70.762 26.0557 70.633 26.3371 70.4524 26.5953C70.2783 26.8469 70.0462 27.0488 69.756 27.2011C69.4723 27.3534 69.1208 27.4295 68.7017 27.4295ZM68.7017 26.7641C69.0628 26.7641 69.353 26.6748 69.5722 26.496C69.7915 26.3172 69.9495 26.0789 70.0462 25.781C70.1494 25.483 70.201 25.1586 70.201 24.8077C70.201 24.4767 70.159 24.1655 70.0752 23.8742C69.9914 23.5829 69.8366 23.3479 69.6109 23.1691C69.3917 22.9837 69.0693 22.891 68.6437 22.891C68.4502 22.891 68.2535 22.9308 68.0536 23.0102C67.8602 23.0897 67.6828 23.189 67.5216 23.3081C67.3669 23.4273 67.2508 23.5531 67.1734 23.6855C67.167 23.7451 67.1637 23.8345 67.1637 23.9537C67.1637 24.0728 67.1637 24.1821 67.1637 24.2814C67.1637 24.5992 67.1863 24.907 67.2315 25.205C67.2766 25.4963 67.354 25.7611 67.4636 25.9994C67.5732 26.2312 67.728 26.4166 67.9279 26.5556C68.1278 26.6946 68.3857 26.7641 68.7017 26.7641Z" fill="#141414"/>
<path d="M74.3018 27.4295C73.8568 27.4295 73.4603 27.3203 73.112 27.1018C72.7638 26.8767 72.4898 26.5622 72.2899 26.1583C72.0964 25.7545 71.9997 25.2811 71.9997 24.7382C71.9997 24.1953 72.0964 23.7252 72.2899 23.328C72.4898 22.9241 72.7638 22.6097 73.112 22.3846C73.4603 22.1594 73.8568 22.0469 74.3018 22.0469C74.7532 22.0469 75.153 22.1594 75.5012 22.3846C75.8494 22.6097 76.1202 22.9241 76.3137 23.328C76.5136 23.7252 76.6135 24.1953 76.6135 24.7382C76.6135 25.2811 76.5136 25.7545 76.3137 26.1583C76.1202 26.5622 75.8494 26.8767 75.5012 27.1018C75.1594 27.3203 74.7596 27.4295 74.3018 27.4295ZM74.3018 26.7641C74.6242 26.7641 74.9015 26.6814 75.1336 26.5159C75.3658 26.3503 75.5431 26.1153 75.6656 25.8108C75.7946 25.5062 75.8591 25.1487 75.8591 24.7382C75.8591 24.3277 75.7946 23.9702 75.6656 23.6657C75.5431 23.3611 75.3658 23.1261 75.1336 22.9606C74.9015 22.795 74.6242 22.7123 74.3018 22.7123C73.9858 22.7123 73.7117 22.795 73.4796 22.9606C73.2475 23.1261 73.0669 23.3611 72.9379 23.6657C72.8154 23.9702 72.7541 24.3277 72.7541 24.7382C72.7541 25.1487 72.8154 25.5062 72.9379 25.8108C73.0669 26.1153 73.2475 26.3503 73.4796 26.5159C73.7117 26.6814 73.9858 26.7641 74.3018 26.7641Z" fill="#141414"/>
<path d="M78.9152 27.3103V22.7917H77.2902V22.1661H81.285V22.7917H79.6407V27.3103H78.9152Z" fill="#141414"/>
<path d="M82.2459 27.3103V22.1661H82.9713V24.48C83.1454 24.3079 83.3389 24.1159 83.5517 23.904C83.7645 23.6855 83.9741 23.467 84.1804 23.2486C84.3932 23.0301 84.5866 22.8281 84.7608 22.6428C84.9413 22.4508 85.0864 22.2919 85.196 22.1661H86.0569C85.9086 22.3316 85.7345 22.5203 85.5346 22.7321C85.3347 22.944 85.1251 23.1625 84.9058 23.3876C84.6866 23.6127 84.4738 23.8279 84.2675 24.0331C84.0611 24.2317 83.8805 24.4072 83.7258 24.5594C83.945 24.7051 84.1739 24.8872 84.4125 25.1057C84.6511 25.3175 84.8865 25.5492 85.1186 25.8008C85.3508 26.0524 85.5636 26.3106 85.757 26.5754C85.9505 26.8337 86.1149 27.0786 86.2503 27.3103H85.3991C85.2057 26.9925 84.9639 26.6714 84.6737 26.347C84.39 26.0226 84.0966 25.7247 83.7935 25.4532C83.4904 25.1818 83.2164 24.9732 82.9713 24.8276V27.3103H82.2459Z" fill="#141414"/>
<path d="M88.733 27.4196C88.3719 27.4196 88.0495 27.3666 87.7658 27.2607C87.482 27.1548 87.2596 26.9826 87.0984 26.7443C86.9371 26.5059 86.8565 26.1914 86.8565 25.8008C86.8565 25.4234 86.9468 25.1189 87.1274 24.8872C87.3079 24.6488 87.5562 24.4767 87.8722 24.3708C88.1946 24.2648 88.5557 24.2119 88.9555 24.2119C89.1361 24.2119 89.3263 24.2284 89.5262 24.2615C89.7261 24.2946 89.8518 24.3244 89.9034 24.3509V24.053C89.9034 23.8279 89.8744 23.6127 89.8164 23.4074C89.7648 23.1956 89.6552 23.0234 89.4875 22.891C89.3198 22.7586 89.0651 22.6924 88.7234 22.6924C88.3687 22.6924 88.0979 22.7189 87.9109 22.7719C87.7239 22.8248 87.5852 22.8679 87.4949 22.901L87.3982 22.2654C87.5143 22.2124 87.6916 22.1628 87.9302 22.1164C88.1688 22.0701 88.4493 22.0469 88.7717 22.0469C89.2296 22.0469 89.5907 22.1297 89.8551 22.2952C90.1259 22.4607 90.3193 22.6891 90.4354 22.9804C90.5579 23.2651 90.6192 23.5928 90.6192 23.9636V27.1912C90.4838 27.2243 90.242 27.2706 89.8938 27.3302C89.5455 27.3898 89.1586 27.4196 88.733 27.4196ZM88.8394 26.784C89.0651 26.784 89.2682 26.7774 89.4488 26.7641C89.6294 26.7443 89.7809 26.7211 89.9034 26.6946V24.9666C89.8389 24.9335 89.7293 24.9004 89.5746 24.8673C89.4198 24.8342 89.2199 24.8177 88.9748 24.8177C88.7685 24.8177 88.5589 24.8408 88.3461 24.8872C88.1333 24.9335 87.9528 25.0262 87.8045 25.1652C87.6626 25.3043 87.5917 25.5128 87.5917 25.7909C87.5917 26.1617 87.7045 26.4199 87.9302 26.5655C88.1559 26.7112 88.459 26.784 88.8394 26.784Z" fill="#141414"/>
<path d="M96.502 27.4196C95.9732 27.4196 95.5315 27.3103 95.1768 27.0919C94.8222 26.8668 94.5546 26.5523 94.374 26.1484C94.1934 25.7445 94.1032 25.2778 94.1032 24.7481C94.1032 24.2119 94.1967 23.7418 94.3837 23.3379C94.5707 22.9341 94.8383 22.6196 95.1865 22.3945C95.5412 22.1628 95.9603 22.0469 96.4439 22.0469C96.7083 22.0469 96.9598 22.0701 97.1984 22.1164C97.437 22.1628 97.624 22.2223 97.7594 22.2952L97.5756 22.9208C97.4467 22.8612 97.3016 22.8116 97.1404 22.7719C96.9792 22.7321 96.7664 22.7123 96.502 22.7123C95.9668 22.7123 95.5573 22.891 95.2736 23.2486C94.9963 23.6061 94.8576 24.1059 94.8576 24.7481C94.8576 25.1454 94.9157 25.4963 95.0317 25.8008C95.1478 26.0988 95.3348 26.3338 95.5927 26.5059C95.8507 26.6714 96.1925 26.7542 96.618 26.7542C96.8695 26.7542 97.0888 26.7244 97.2758 26.6648C97.4692 26.6052 97.6111 26.5523 97.7014 26.5059L97.8465 27.1415C97.7239 27.2077 97.5369 27.2706 97.2855 27.3302C97.034 27.3898 96.7728 27.4196 96.502 27.4196Z" fill="#141414"/>
<path d="M100.408 27.4196C100.047 27.4196 99.7247 27.3666 99.4409 27.2607C99.1572 27.1548 98.9347 26.9826 98.7735 26.7443C98.6123 26.5059 98.5317 26.1914 98.5317 25.8008C98.5317 25.4234 98.622 25.1189 98.8025 24.8872C98.9831 24.6488 99.2314 24.4767 99.5473 24.3708C99.8698 24.2648 100.231 24.2119 100.631 24.2119C100.811 24.2119 101.001 24.2284 101.201 24.2615C101.401 24.2946 101.527 24.3244 101.579 24.3509V24.053C101.579 23.8279 101.55 23.6127 101.492 23.4074C101.44 23.1956 101.33 23.0234 101.163 22.891C100.995 22.7586 100.74 22.6924 100.399 22.6924C100.044 22.6924 99.773 22.7189 99.586 22.7719C99.399 22.8248 99.2604 22.8679 99.1701 22.901L99.0734 22.2654C99.1895 22.2124 99.3668 22.1628 99.6054 22.1164C99.844 22.0701 100.124 22.0469 100.447 22.0469C100.905 22.0469 101.266 22.1297 101.53 22.2952C101.801 22.4607 101.995 22.6891 102.111 22.9804C102.233 23.2651 102.294 23.5928 102.294 23.9636V27.1912C102.159 27.2243 101.917 27.2706 101.569 27.3302C101.221 27.3898 100.834 27.4196 100.408 27.4196ZM100.515 26.784C100.74 26.784 100.943 26.7774 101.124 26.7641C101.305 26.7443 101.456 26.7211 101.579 26.6946V24.9666C101.514 24.9335 101.404 24.9004 101.25 24.8673C101.095 24.8342 100.895 24.8177 100.65 24.8177C100.444 24.8177 100.234 24.8408 100.021 24.8872C99.8085 24.9335 99.628 25.0262 99.4796 25.1652C99.3378 25.3043 99.2668 25.5128 99.2668 25.7909C99.2668 26.1617 99.3797 26.4199 99.6054 26.5655C99.8311 26.7112 100.134 26.784 100.515 26.784Z" fill="#141414"/>
<path d="M103.858 27.3103V22.1661H104.574C104.574 22.848 104.571 23.5233 104.564 24.192C104.564 24.8541 104.564 25.4996 104.564 26.1286C104.693 25.8968 104.842 25.6452 105.009 25.3738C105.177 25.0957 105.357 24.811 105.551 24.5197C105.744 24.2218 105.941 23.9305 106.141 23.6458C106.341 23.3545 106.537 23.083 106.731 22.8314C106.931 22.5799 107.118 22.3581 107.292 22.1661H107.95V27.3103H107.244C107.244 26.8337 107.244 26.3603 107.244 25.8902C107.244 25.4135 107.244 24.9468 107.244 24.4899C107.244 24.0265 107.244 23.5763 107.244 23.1393C107.05 23.3843 106.831 23.6822 106.586 24.0331C106.347 24.384 106.099 24.7581 105.841 25.1553C105.59 25.5459 105.348 25.9299 105.116 26.3073C104.89 26.6781 104.693 27.0124 104.526 27.3103H103.858ZM105.909 21.312C105.67 21.312 105.454 21.2657 105.261 21.173C105.067 21.0737 104.909 20.9346 104.787 20.7559C104.664 20.5771 104.58 20.3586 104.535 20.1004L105.106 19.9514C105.145 20.1765 105.228 20.3586 105.357 20.4977C105.486 20.6367 105.67 20.7062 105.909 20.7062C106.147 20.7062 106.331 20.6367 106.46 20.4977C106.589 20.3586 106.676 20.1765 106.721 19.9514L107.282 20.1004C107.244 20.3586 107.163 20.5771 107.04 20.7559C106.918 20.9346 106.76 21.0737 106.566 21.173C106.373 21.2657 106.154 21.312 105.909 21.312Z" fill="#141414"/>
<path d="M110.55 27.3103V22.7917H108.925V22.1661H112.919V22.7917H111.275V27.3103H110.55Z" fill="#141414"/>
<path d="M115.892 27.4295C115.447 27.4295 115.051 27.3203 114.702 27.1018C114.354 26.8767 114.08 26.5622 113.88 26.1583C113.687 25.7545 113.59 25.2811 113.59 24.7382C113.59 24.1953 113.687 23.7252 113.88 23.328C114.08 22.9241 114.354 22.6097 114.702 22.3846C115.051 22.1594 115.447 22.0469 115.892 22.0469C116.344 22.0469 116.743 22.1594 117.092 22.3846C117.44 22.6097 117.711 22.9241 117.904 23.328C118.104 23.7252 118.204 24.1953 118.204 24.7382C118.204 25.2811 118.104 25.7545 117.904 26.1583C117.711 26.5622 117.44 26.8767 117.092 27.1018C116.75 27.3203 116.35 27.4295 115.892 27.4295ZM115.892 26.7641C116.215 26.7641 116.492 26.6814 116.724 26.5159C116.956 26.3503 117.134 26.1153 117.256 25.8108C117.385 25.5062 117.449 25.1487 117.449 24.7382C117.449 24.3277 117.385 23.9702 117.256 23.6657C117.134 23.3611 116.956 23.1261 116.724 22.9606C116.492 22.795 116.215 22.7123 115.892 22.7123C115.576 22.7123 115.302 22.795 115.07 22.9606C114.838 23.1261 114.657 23.3611 114.528 23.6657C114.406 23.9702 114.345 24.3277 114.345 24.7382C114.345 25.1487 114.406 25.5062 114.528 25.8108C114.657 26.1153 114.838 26.3503 115.07 26.5159C115.302 26.6814 115.576 26.7641 115.892 26.7641Z" fill="#141414"/>
<path d="M121.192 27.4097C120.967 27.4097 120.751 27.3964 120.544 27.3699C120.344 27.3501 120.157 27.3236 119.983 27.2905C119.816 27.2574 119.667 27.2243 119.538 27.1912V22.2753C119.654 22.2422 119.793 22.2091 119.954 22.176C120.122 22.1429 120.312 22.1164 120.525 22.0965C120.738 22.0701 120.97 22.0568 121.221 22.0568C121.441 22.0568 121.67 22.0734 121.908 22.1065C122.153 22.133 122.382 22.1959 122.595 22.2952C122.814 22.3879 122.992 22.5269 123.127 22.7123C123.262 22.8977 123.33 23.1459 123.33 23.4571C123.33 23.7021 123.259 23.9239 123.117 24.1225C122.982 24.3145 122.798 24.4568 122.566 24.5495C122.792 24.6157 122.975 24.7084 123.117 24.8276C123.266 24.9468 123.375 25.0891 123.446 25.2546C123.524 25.4201 123.562 25.6121 123.562 25.8306C123.562 26.1617 123.498 26.4298 123.369 26.635C123.24 26.8403 123.062 26.9992 122.837 27.1117C122.618 27.2243 122.366 27.3004 122.082 27.3401C121.799 27.3865 121.502 27.4097 121.192 27.4097ZM121.25 26.784C121.534 26.784 121.795 26.7608 122.034 26.7145C122.273 26.6615 122.463 26.5655 122.605 26.4265C122.753 26.2874 122.827 26.0855 122.827 25.8207C122.827 25.4698 122.692 25.2281 122.421 25.0957C122.156 24.9633 121.824 24.8971 121.425 24.8971H120.264V26.6946C120.335 26.7145 120.47 26.7343 120.67 26.7542C120.87 26.7741 121.063 26.784 121.25 26.784ZM120.264 24.3112H121.367C121.734 24.3112 122.031 24.2483 122.256 24.1225C122.489 23.9967 122.605 23.7848 122.605 23.4869C122.605 23.2353 122.537 23.0532 122.402 22.9407C122.266 22.8281 122.092 22.7553 121.879 22.7222C121.673 22.6891 121.454 22.6726 121.221 22.6726C121.022 22.6726 120.828 22.6825 120.641 22.7023C120.454 22.7222 120.328 22.7421 120.264 22.7619V24.3112Z" fill="#141414"/>
<path d="M127.086 27.3103V22.1661H127.801C127.801 22.848 127.798 23.5233 127.792 24.192C127.792 24.8541 127.792 25.4996 127.792 26.1286C127.921 25.8968 128.069 25.6452 128.237 25.3738C128.404 25.0957 128.585 24.811 128.778 24.5197C128.972 24.2218 129.169 23.9305 129.368 23.6458C129.568 23.3545 129.765 23.083 129.958 22.8314C130.158 22.5799 130.345 22.3581 130.519 22.1661H131.177V27.3103H130.471C130.471 26.8337 130.471 26.3603 130.471 25.8902C130.471 25.4135 130.471 24.9468 130.471 24.4899C130.471 24.0265 130.471 23.5763 130.471 23.1393C130.278 23.3843 130.058 23.6822 129.813 24.0331C129.575 24.384 129.327 24.7581 129.069 25.1553C128.817 25.5459 128.575 25.9299 128.343 26.3073C128.117 26.6781 127.921 27.0124 127.753 27.3103H127.086Z" fill="#141414"/>
<path d="M135.02 27.3103V22.1661H138.938V27.3103H138.222V22.7917H135.746V27.3103H135.02Z" fill="#141414"/>
<path d="M140.574 29.1476V22.3448C140.703 22.2985 140.855 22.2554 141.029 22.2157C141.21 22.176 141.416 22.1429 141.648 22.1164C141.88 22.0833 142.138 22.0668 142.422 22.0668C142.918 22.0668 143.354 22.176 143.728 22.3945C144.102 22.6063 144.392 22.9142 144.598 23.3181C144.805 23.7153 144.908 24.192 144.908 24.7481C144.908 25.2712 144.818 25.7346 144.637 26.1385C144.463 26.5423 144.208 26.8601 143.873 27.0919C143.538 27.317 143.128 27.4295 142.644 27.4295C142.335 27.4295 142.061 27.3865 141.822 27.3004C141.59 27.2077 141.416 27.1183 141.3 27.0323V29.1476H140.574ZM142.557 26.7641C142.848 26.7641 143.093 26.7145 143.292 26.6152C143.499 26.5092 143.663 26.3636 143.786 26.1782C143.915 25.9928 144.005 25.781 144.057 25.5426C144.115 25.2977 144.144 25.0361 144.144 24.7581C144.144 24.3277 144.073 23.9603 143.931 23.6557C143.789 23.3512 143.586 23.1194 143.322 22.9606C143.064 22.8017 142.761 22.7222 142.412 22.7222C142.129 22.7222 141.893 22.7388 141.706 22.7719C141.526 22.7983 141.39 22.8248 141.3 22.8513V26.3371C141.41 26.4232 141.577 26.5159 141.803 26.6152C142.029 26.7145 142.28 26.7641 142.557 26.7641Z" fill="#141414"/>
<path d="M148.245 27.4295C147.8 27.4295 147.403 27.3203 147.055 27.1018C146.707 26.8767 146.433 26.5622 146.233 26.1583C146.039 25.7545 145.942 25.2811 145.942 24.7382C145.942 24.1953 146.039 23.7252 146.233 23.328C146.433 22.9241 146.707 22.6097 147.055 22.3846C147.403 22.1594 147.8 22.0469 148.245 22.0469C148.696 22.0469 149.096 22.1594 149.444 22.3846C149.792 22.6097 150.063 22.9241 150.256 23.328C150.456 23.7252 150.556 24.1953 150.556 24.7382C150.556 25.2811 150.456 25.7545 150.256 26.1583C150.063 26.5622 149.792 26.8767 149.444 27.1018C149.102 27.3203 148.702 27.4295 148.245 27.4295ZM148.245 26.7641C148.567 26.7641 148.844 26.6814 149.076 26.5159C149.309 26.3503 149.486 26.1153 149.608 25.8108C149.737 25.5062 149.802 25.1487 149.802 24.7382C149.802 24.3277 149.737 23.9702 149.608 23.6657C149.486 23.3611 149.309 23.1261 149.076 22.9606C148.844 22.795 148.567 22.7123 148.245 22.7123C147.929 22.7123 147.654 22.795 147.422 22.9606C147.19 23.1261 147.01 23.3611 146.881 23.6657C146.758 23.9702 146.697 24.3277 146.697 24.7382C146.697 25.1487 146.758 25.5062 146.881 25.8108C147.01 26.1153 147.19 26.3503 147.422 26.5159C147.654 26.6814 147.929 26.7641 148.245 26.7641Z" fill="#141414"/>
<path d="M151.233 28.7404V26.6847H151.755C151.962 26.3537 152.126 26.0259 152.249 25.7015C152.378 25.3771 152.474 25.0394 152.539 24.6886C152.603 24.331 152.645 23.947 152.665 23.5366C152.684 23.1261 152.694 22.6692 152.694 22.1661H155.856V26.6847H156.456V28.7404H155.779V27.3103H151.91V28.7404H151.233ZM152.519 26.6847H155.131V22.7917H153.371C153.371 23.2486 153.348 23.6988 153.303 24.1423C153.258 24.5793 153.174 25.0097 153.051 25.4334C152.935 25.8571 152.758 26.2742 152.519 26.6847Z" fill="#141414"/>
<path d="M159.212 27.4097C158.987 27.4097 158.771 27.3964 158.564 27.3699C158.364 27.3501 158.177 27.3236 158.003 27.2905C157.836 27.2574 157.687 27.2243 157.558 27.1912V22.2753C157.674 22.2422 157.813 22.2091 157.974 22.176C158.142 22.1429 158.332 22.1164 158.545 22.0965C158.758 22.0701 158.99 22.0568 159.241 22.0568C159.461 22.0568 159.689 22.0734 159.928 22.1065C160.173 22.133 160.402 22.1959 160.615 22.2952C160.834 22.3879 161.011 22.5269 161.147 22.7123C161.282 22.8977 161.35 23.1459 161.35 23.4571C161.35 23.7021 161.279 23.9239 161.137 24.1225C161.002 24.3145 160.818 24.4568 160.586 24.5495C160.811 24.6157 160.995 24.7084 161.137 24.8276C161.285 24.9468 161.395 25.0891 161.466 25.2546C161.543 25.4201 161.582 25.6121 161.582 25.8306C161.582 26.1617 161.518 26.4298 161.389 26.635C161.26 26.8403 161.082 26.9992 160.857 27.1117C160.637 27.2243 160.386 27.3004 160.102 27.3401C159.818 27.3865 159.522 27.4097 159.212 27.4097ZM159.27 26.784C159.554 26.784 159.815 26.7608 160.054 26.7145C160.292 26.6615 160.483 26.5655 160.625 26.4265C160.773 26.2874 160.847 26.0855 160.847 25.8207C160.847 25.4698 160.712 25.2281 160.441 25.0957C160.176 24.9633 159.844 24.8971 159.444 24.8971H158.284V26.6946C158.355 26.7145 158.49 26.7343 158.69 26.7542C158.89 26.7741 159.083 26.784 159.27 26.784ZM158.284 24.3112H159.386C159.754 24.3112 160.051 24.2483 160.276 24.1225C160.508 23.9967 160.625 23.7848 160.625 23.4869C160.625 23.2353 160.557 23.0532 160.421 22.9407C160.286 22.8281 160.112 22.7553 159.899 22.7222C159.693 22.6891 159.473 22.6726 159.241 22.6726C159.041 22.6726 158.848 22.6825 158.661 22.7023C158.474 22.7222 158.348 22.7421 158.284 22.7619V24.3112Z" fill="#141414"/>
<path d="M162.895 27.3103V22.1661H163.611C163.611 22.848 163.608 23.5233 163.601 24.192C163.601 24.8541 163.601 25.4996 163.601 26.1286C163.73 25.8968 163.879 25.6452 164.046 25.3738C164.214 25.0957 164.395 24.811 164.588 24.5197C164.781 24.2218 164.978 23.9305 165.178 23.6458C165.378 23.3545 165.575 23.083 165.768 22.8314C165.968 22.5799 166.155 22.3581 166.329 22.1661H166.987V27.3103H166.281C166.281 26.8337 166.281 26.3603 166.281 25.8902C166.281 25.4135 166.281 24.9468 166.281 24.4899C166.281 24.0265 166.281 23.5763 166.281 23.1393C166.087 23.3843 165.868 23.6822 165.623 24.0331C165.384 24.384 165.136 24.7581 164.878 25.1553C164.627 25.5459 164.385 25.9299 164.153 26.3073C163.927 26.6781 163.73 27.0124 163.563 27.3103H162.895Z" fill="#141414"/>
<path d="M167.971 27.3103C168.146 26.9992 168.355 26.6781 168.6 26.347C168.852 26.0094 169.119 25.685 169.403 25.3738C169.693 25.0626 169.983 24.7945 170.273 24.5694C170.074 24.3443 169.848 24.0894 169.596 23.8047C169.351 23.52 169.11 23.2353 168.871 22.9506C168.632 22.6593 168.416 22.3978 168.223 22.1661H169.055C169.306 22.4839 169.596 22.8414 169.925 23.2386C170.261 23.6359 170.628 24.0629 171.028 24.5197V22.1661H171.744V24.5197C172.144 24.0695 172.508 23.6458 172.837 23.2486C173.172 22.8447 173.465 22.4839 173.717 22.1661H174.539C174.352 22.3978 174.139 22.6593 173.901 22.9506C173.662 23.2353 173.42 23.52 173.175 23.8047C172.93 24.0828 172.705 24.3343 172.498 24.5594C172.795 24.7912 173.085 25.0626 173.369 25.3738C173.659 25.685 173.927 26.0094 174.172 26.347C174.423 26.6781 174.636 26.9992 174.81 27.3103H173.997C173.856 27.0786 173.688 26.837 173.494 26.5854C173.307 26.3338 173.108 26.0921 172.895 25.8604C172.688 25.6221 172.485 25.4102 172.285 25.2248C172.085 25.0328 171.905 24.8872 171.744 24.7879V27.3103H171.028V24.7879C170.867 24.8872 170.686 25.0328 170.486 25.2248C170.286 25.4102 170.08 25.6221 169.867 25.8604C169.661 26.0988 169.461 26.3437 169.268 26.5953C169.081 26.8403 168.916 27.0786 168.774 27.3103H167.971Z" fill="#141414"/>
<path d="M177.843 27.4196C177.256 27.4196 176.779 27.3037 176.411 27.072C176.05 26.8403 175.783 26.5225 175.609 26.1186C175.441 25.7148 175.357 25.2546 175.357 24.7382C175.357 24.1357 175.463 23.6359 175.676 23.2386C175.889 22.8414 176.163 22.5434 176.498 22.3448C176.84 22.1462 177.198 22.0469 177.572 22.0469C177.991 22.0469 178.352 22.1396 178.655 22.325C178.965 22.5037 179.204 22.7818 179.371 23.1592C179.539 23.5299 179.623 24.0033 179.623 24.5793C179.623 24.6257 179.619 24.6819 179.613 24.7481C179.613 24.8077 179.61 24.864 179.603 24.917H176.112C176.137 25.4996 176.289 25.9531 176.566 26.2775C176.85 26.5953 177.288 26.7542 177.882 26.7542C178.21 26.7542 178.478 26.7244 178.684 26.6648C178.897 26.5986 179.049 26.5423 179.139 26.496L179.265 27.1217C179.175 27.1746 178.997 27.2375 178.733 27.3103C178.475 27.3832 178.178 27.4196 177.843 27.4196ZM176.131 24.3112H178.888C178.881 23.9735 178.826 23.6855 178.723 23.4472C178.62 23.2022 178.472 23.0168 178.278 22.891C178.091 22.7586 177.859 22.6924 177.582 22.6924C177.298 22.6924 177.05 22.7686 176.837 22.9208C176.624 23.0731 176.457 23.2717 176.334 23.5167C176.218 23.7617 176.15 24.0265 176.131 24.3112Z" fill="#141414"/>
<path d="M180.984 27.3103V22.1661H181.71V24.331H184.283V22.1661H185.008V27.3103H184.283V24.9567H181.71V27.3103H180.984Z" fill="#141414"/>
<path d="M186.633 27.3103V22.1661H187.349C187.349 22.848 187.345 23.5233 187.339 24.192C187.339 24.8541 187.339 25.4996 187.339 26.1286C187.468 25.8968 187.616 25.6452 187.784 25.3738C187.952 25.0957 188.132 24.811 188.326 24.5197C188.519 24.2218 188.716 23.9305 188.916 23.6458C189.115 23.3545 189.312 23.083 189.506 22.8314C189.706 22.5799 189.893 22.3581 190.067 22.1661H190.724V27.3103H190.018C190.018 26.8337 190.018 26.3603 190.018 25.8902C190.018 25.4135 190.018 24.9468 190.018 24.4899C190.018 24.0265 190.018 23.5763 190.018 23.1393C189.825 23.3843 189.606 23.6822 189.361 24.0331C189.122 24.384 188.874 24.7581 188.616 25.1553C188.364 25.5459 188.122 25.9299 187.89 26.3073C187.665 26.6781 187.468 27.0124 187.3 27.3103H186.633Z" fill="#141414"/>
<path d="M194.553 27.4196C193.966 27.4196 193.489 27.3037 193.121 27.072C192.76 26.8403 192.493 26.5225 192.318 26.1186C192.151 25.7148 192.067 25.2546 192.067 24.7382C192.067 24.1357 192.173 23.6359 192.386 23.2386C192.599 22.8414 192.873 22.5434 193.208 22.3448C193.55 22.1462 193.908 22.0469 194.282 22.0469C194.701 22.0469 195.062 22.1396 195.365 22.325C195.675 22.5037 195.913 22.7818 196.081 23.1592C196.249 23.5299 196.333 24.0033 196.333 24.5793C196.333 24.6257 196.329 24.6819 196.323 24.7481C196.323 24.8077 196.32 24.864 196.313 24.917H192.821C192.847 25.4996 192.999 25.9531 193.276 26.2775C193.56 26.5953 193.998 26.7542 194.591 26.7542C194.92 26.7542 195.188 26.7244 195.394 26.6648C195.607 26.5986 195.759 26.5423 195.849 26.496L195.975 27.1217C195.884 27.1746 195.707 27.2375 195.443 27.3103C195.185 27.3832 194.888 27.4196 194.553 27.4196ZM192.841 24.3112H195.597C195.591 23.9735 195.536 23.6855 195.433 23.4472C195.33 23.2022 195.182 23.0168 194.988 22.891C194.801 22.7586 194.569 22.6924 194.292 22.6924C194.008 22.6924 193.76 22.7686 193.547 22.9208C193.334 23.0731 193.166 23.2717 193.044 23.5167C192.928 23.7617 192.86 24.0265 192.841 24.3112Z" fill="#141414"/>
</svg>
