<svg width="42" height="42" viewBox="0 0 42 42" fill="none" xmlns="http://www.w3.org/2000/svg">
<rect x="0.111328" y="0.0358925" width="41.8887" height="41.9282" rx="20.9444" fill="#D13A1F"/>
<path d="M11.1119 25.956V28.956C11.1108 29.2345 11.1678 29.5102 11.2794 29.7653C11.3909 30.0205 11.5546 30.2496 11.7598 30.4379C11.965 30.6261 12.2073 30.7695 12.4711 30.8587C12.735 30.9479 13.0145 30.9811 13.2919 30.956C16.369 30.6216 19.3249 29.5701 21.9219 27.886C24.3381 26.3507 26.3865 24.3022 27.9219 21.886C29.6119 19.2772 30.6636 16.307 30.9919 13.216C31.0169 12.9395 30.984 12.6607 30.8954 12.3976C30.8068 12.1345 30.6643 11.8927 30.4771 11.6876C30.2899 11.4825 30.0621 11.3187 29.8081 11.2065C29.5541 11.0943 29.2795 11.0363 29.0019 11.036H26.0019C25.5166 11.0312 25.0461 11.2031 24.6781 11.5195C24.3102 11.836 24.0698 12.2754 24.0019 12.756C23.8753 13.7161 23.6404 14.6587 23.3019 15.566C23.1673 15.9239 23.1382 16.3129 23.218 16.6869C23.2977 17.0608 23.483 17.4041 23.7519 17.676L25.0219 18.946C23.5983 21.4495 21.5254 23.5224 19.0219 24.946L17.7519 23.676C17.48 23.4071 17.1367 23.2218 16.7628 23.1421C16.3888 23.0623 15.9998 23.0914 15.6419 23.226C14.7346 23.5645 13.7919 23.7994 12.8319 23.926C12.3461 23.9945 11.9025 24.2392 11.5854 24.6135C11.2682 24.9878 11.0997 25.4656 11.1119 25.956Z" fill="white"/>
</svg>
