<svg width="41" height="40" viewBox="0 0 41 40" fill="none" xmlns="http://www.w3.org/2000/svg">
<rect x="0.111328" width="40" height="40" rx="20" fill="#48C95F"/>
<path d="M28.0382 12.0625C26.0625 10.0937 23.4284 9 20.6479 9C14.8674 9 10.1845 13.6667 10.1845 19.4271C10.1845 21.25 10.6967 23.0729 11.5747 24.6042L10.1113 30L15.6723 28.5417C17.2089 29.3438 18.8918 29.7813 20.6479 29.7813C26.4284 29.7813 31.1113 25.1146 31.1113 19.3542C31.0382 16.6563 30.0138 14.0312 28.0382 12.0625ZM25.6967 23.1458C25.4772 23.7292 24.4528 24.3125 23.9406 24.3854C23.5016 24.4583 22.9162 24.4583 22.3308 24.3125C21.965 24.1667 21.4528 24.0208 20.8674 23.7292C18.2333 22.6354 16.5504 20.0104 16.404 19.7917C16.2577 19.6458 15.3065 18.4062 15.3065 17.0937C15.3065 15.7812 15.965 15.1979 16.1845 14.9062C16.404 14.6146 16.6967 14.6146 16.9162 14.6146C17.0625 14.6146 17.2821 14.6146 17.4284 14.6146C17.5747 14.6146 17.7943 14.5417 18.0138 15.0521C18.2333 15.5625 18.7455 16.875 18.8186 16.9479C18.8918 17.0937 18.8918 17.2396 18.8186 17.3854C18.7455 17.5313 18.6723 17.6771 18.526 17.8229C18.3796 17.9687 18.2333 18.1875 18.1601 18.2604C18.0138 18.4062 17.8674 18.5521 18.0138 18.7708C18.1601 19.0625 18.6723 19.8646 19.4772 20.5937C20.5016 21.4687 21.3064 21.7604 21.5991 21.9063C21.8918 22.0521 22.0382 21.9792 22.1845 21.8333C22.3308 21.6875 22.843 21.1042 22.9894 20.8125C23.1357 20.5208 23.3552 20.5938 23.5747 20.6667C23.7943 20.7396 25.1113 21.3958 25.3308 21.5417C25.6235 21.6875 25.7699 21.7604 25.843 21.8333C25.9162 22.0521 25.9162 22.5625 25.6967 23.1458Z" fill="white"/>
</svg>
